<svg width="358" height="232" viewBox="0 0 358 232" fill="none" xmlns="http://www.w3.org/2000/svg">
<g opacity="0.75">
<path opacity="0.2" d="M179.783 231.555C247.907 231.555 303.133 228.402 303.133 224.512C303.133 220.622 247.907 217.469 179.783 217.469C111.659 217.469 56.4331 220.622 56.4331 224.512C56.4331 228.402 111.659 231.555 179.783 231.555Z" fill="#043036"/>
<path opacity="0.2" d="M100.027 44.9895C99.9511 45.0684 99.8109 45.1142 99.5903 45.1142C94.3035 45.1142 89.0168 45.0084 83.7317 45.0179C81.1505 45.0226 78.5694 45.07 75.9899 45.1632C73.549 45.2516 70.897 45.735 68.5034 45.0874C67.7108 44.8726 69.3385 43.1825 69.619 42.9535C70.3155 42.3881 71.2421 42.088 72.1261 42.2301C72.6303 40.6965 73.6766 39.4029 75.087 38.6226C75.5865 38.3462 76.1443 38.1314 76.7147 38.1599C77.312 38.1899 77.8635 38.4789 78.3772 38.7901C79.0847 39.2181 79.778 39.7141 80.2382 40.4027C80.8464 39.594 81.5177 38.8643 82.3418 38.2783C82.7783 37.9687 83.2463 37.6908 83.7616 37.547C84.2202 37.4175 84.7023 37.397 85.1782 37.4128C86.401 37.4523 87.6459 37.7397 88.6497 38.441C89.6534 39.1423 90.3814 40.3032 90.3657 41.5304C91.0007 40.3837 92.4551 39.8388 93.7646 39.8199C94.4327 39.8104 95.1245 39.9289 95.6713 40.3127C96.5254 40.9113 96.8531 42.0169 96.9997 43.0515C97.5733 42.7308 98.3296 42.7703 98.8685 43.1478C99.2215 43.3958 100.408 44.5962 100.027 44.9895Z" fill="url(#paint0_linear_4_5577)"/>
<path opacity="0.2" d="M315.308 28.5529C315.232 28.6319 315.092 28.6777 314.871 28.6777C309.585 28.6777 304.298 28.5719 299.013 28.5814C296.432 28.5861 293.85 28.6335 291.271 28.7267C288.83 28.8151 286.178 29.2984 283.784 28.6509C282.992 28.436 284.62 26.746 284.9 26.517C285.597 25.9516 286.523 25.6515 287.407 25.7936C287.911 24.26 288.958 22.9664 290.368 22.1861C290.867 21.9097 291.425 21.6949 291.996 21.7233C292.593 21.7534 293.144 22.0424 293.658 22.3535C294.366 22.7816 295.059 23.2775 295.519 23.9662C296.127 23.1575 296.799 22.4278 297.623 21.8418C298.059 21.5322 298.527 21.2542 299.043 21.1105C299.501 20.981 299.983 20.9605 300.459 20.9763C301.682 21.0157 302.927 21.3032 303.931 22.0045C304.934 22.7058 305.662 23.8667 305.647 25.0939C306.282 23.9472 307.736 23.4023 309.046 23.3834C309.714 23.3739 310.406 23.4923 310.952 23.8761C311.806 24.4748 312.134 25.5804 312.281 26.6149C312.854 26.2943 313.611 26.3338 314.15 26.7113C314.503 26.9593 315.689 28.1596 315.308 28.5529Z" fill="url(#paint1_linear_4_5577)"/>
<path d="M306.45 40.6044C307.142 48.8697 300.147 61.9997 297.333 70.0392C293.797 80.1398 289.938 90.1694 285.01 99.6809C283.445 98.8407 271.221 83.7442 271.265 83.7094C259.002 93.4879 246.738 103.268 234.475 113.046C224.932 120.656 215.389 128.266 205.846 135.876C202.266 138.732 198.995 141.954 195.535 144.95C191.987 148.02 187.92 150.511 184.069 153.174C181.635 154.858 180.703 152.386 179.337 150.718C178.203 149.333 177.071 147.946 175.941 146.558C173.608 143.688 171.283 140.809 168.965 137.926C164.405 132.253 159.868 126.56 155.322 120.874C154.678 120.069 144.101 107.311 144.322 107.09C132.901 116.573 121.478 126.056 110.057 135.539C101.886 142.323 93.7159 149.107 85.5439 155.892C82.7595 158.203 80.0555 160.722 77.1419 162.869C69.3875 168.58 60.1582 151.816 56.7199 147.032C54.0962 143.367 130.438 83.3793 138.685 76.5308C140.658 74.8929 143.116 71.9172 145.472 70.8968C146.611 70.4025 146.961 68.9841 148.435 69.1847C154.2 69.9887 161.23 83.1961 164.244 87.3232C169.512 94.5335 177.148 103.942 182.798 110.875C187.416 116.543 185.582 116.992 191.135 112.928C199.102 107.098 206.642 100.562 214.36 94.4071C216.987 92.3127 254.068 62.611 254.133 62.69C249.825 57.4035 243.701 51.7996 240.829 45.7692C247.025 43.4032 306.316 39.0549 306.45 40.6044Z" fill="#1B7783"/>
<path d="M169.997 56.3661C169.997 56.3661 170.212 56.3977 170.598 56.4719C172.088 56.7609 176.146 57.6865 180.366 59.8914C185.681 62.6681 187.783 63.3252 189.595 63.8116C189.855 63.8811 194.745 48.5525 195.589 46.9888C195.985 46.2575 200.637 46.9841 200.67 47.2241C200.703 47.4642 196.704 72.2902 194.483 73.8791C192.263 75.4681 180.396 71.7832 180.396 71.7832" fill="#087F5D"/>
<path d="M172.612 102.159C172.612 102.159 168.05 158.023 168.381 157.977C168.712 157.932 175.098 157.977 175.098 157.977L181.058 106.111L172.612 102.159Z" fill="#021D21"/>
<path d="M168.562 91.6572C168.562 91.6572 156.067 62.4672 165.495 57.9831C180.643 50.7776 183.246 87.8143 183.246 87.8143L168.562 91.6572Z" fill="#026D4F"/>
<path d="M166.266 60.1928C165.352 55.6124 163.879 51.9291 163.108 48.985C161.754 43.8107 163.129 38.9665 166.179 38.1641C169.23 37.3617 172.801 40.906 174.154 46.0804C174.357 46.859 174.499 47.6298 174.584 48.3816C174.918 51.3858 172.99 54.1767 170.073 54.9443L171.371 58.716L166.266 60.1928Z" fill="#F8A475"/>
<path d="M158.743 44.6192C157.155 40.9817 161.709 36.4297 162.109 36.9952C162.508 37.5606 161.844 38.7547 162 38.6963C162.156 38.6378 165.59 34.4207 167.148 34.6876C168.707 34.9545 166.458 36.0949 166.783 36.1202C167.107 36.1454 170.798 34.119 171.885 34.7065C172.974 35.2941 170.725 36.0412 170.725 36.0412C170.725 36.0412 174.285 35.5342 175.119 37.3821C175.506 38.2414 172.764 40.3247 170.606 40.9596C170.606 40.9596 169.455 41.2013 168.026 41.7841C168.026 41.7841 168.445 49.2613 166.657 51.0666C164.868 52.8719 164.361 52.8893 164.361 52.8893C164.361 52.8893 159.853 47.159 158.743 44.6192Z" fill="#021D21"/>
<path d="M165.735 47.9772C166.151 48.7858 167.005 49.1744 167.642 48.8443C168.28 48.5142 168.459 47.5918 168.043 46.7831C167.627 45.9744 166.773 45.5859 166.137 45.916C165.499 46.2461 165.319 47.1685 165.735 47.9772Z" fill="#F8A475"/>
<path d="M170.817 44.6302C171.018 45.1088 171.48 45.3694 171.849 45.213C172.218 45.0566 172.352 44.5433 172.15 44.0647C171.948 43.5862 171.486 43.3255 171.118 43.4819C170.749 43.6383 170.615 44.1532 170.817 44.6302Z" fill="#021D21"/>
<path d="M173.253 49.9169C172.791 49.9169 172.133 49.8016 171.573 49.2646C171.472 49.1682 171.469 49.0071 171.565 48.9076C171.661 48.8065 171.822 48.8034 171.921 48.8997C172.67 49.6184 173.658 49.3752 173.701 49.3641C173.836 49.3294 173.973 49.4115 174.008 49.5457C174.042 49.68 173.962 49.819 173.828 49.8537C173.808 49.8601 173.581 49.9169 173.253 49.9169Z" fill="#021D21"/>
<path d="M173.135 43.2705C173.135 43.2705 175.376 45.9698 175.276 46.5068C175.175 47.0438 173.888 46.987 173.888 46.987L173.135 43.2705Z" fill="#F8A475"/>
<path d="M169.926 43.4867C169.884 43.4867 169.84 43.4757 169.799 43.4551C169.668 43.3841 169.619 43.2214 169.69 43.0903C170.325 41.9057 171.378 41.8662 171.422 41.8646C171.568 41.8567 171.693 41.9783 171.698 42.1268C171.701 42.2753 171.584 42.3985 171.438 42.4032C171.401 42.4048 170.645 42.4474 170.164 43.3446C170.114 43.4346 170.023 43.4867 169.926 43.4867Z" fill="#021D21"/>
<path d="M201.407 44.3841C198.314 44.9843 195.221 45.5845 192.128 46.1847C191.05 46.3931 189.972 46.6032 188.894 46.8117C188.573 46.8733 187.569 47.2524 187.285 47.1244C186.994 46.9918 186.962 46.0457 186.898 45.7029C186.467 43.4711 186.036 41.2409 185.606 39.0092C185.587 38.9144 185.511 38.7249 185.533 38.6301C185.639 38.1799 187.34 38.0757 187.793 37.9872C188.686 37.8135 189.58 37.6413 190.473 37.4676C192.449 37.0838 194.427 36.7016 196.403 36.3178C197.511 36.103 198.618 35.8881 199.728 35.6733L201.407 44.3841Z" fill="white"/>
<path opacity="0.8" d="M186.896 45.6995C183.986 46.2633 181.075 46.8288 178.165 47.3927C177.93 47.4385 177.514 47.6106 177.358 47.4416C177.32 47.4006 177.328 47.2521 177.312 47.1968C177.233 46.9425 177.208 46.6582 177.158 46.3976C177.013 45.6442 176.868 44.8924 176.721 44.139C176.565 43.335 176.411 42.5311 176.255 41.7271C176.331 41.566 177.618 41.4618 177.796 41.427C178.463 41.2975 179.129 41.168 179.796 41.0401C181.756 40.6594 183.716 40.2788 185.678 39.8997C185.683 39.8981 185.771 39.8823 185.771 39.8823C185.773 39.8792 186.896 45.6995 186.896 45.6995Z" fill="white"/>
<path d="M215.47 43.0842C212.974 43.5691 210.476 44.0524 207.98 44.5373C206.66 44.7932 205.337 45.0491 204.017 45.3065C203.357 45.4345 202.696 45.5624 202.035 45.6903C201.688 45.7582 201.36 45.9525 201.2 45.6493C201.062 45.3918 201.062 44.9401 201.007 44.6558C200.903 44.1188 200.799 43.5802 200.695 43.0431C200.207 40.5113 199.718 37.981 199.23 35.4491C199.183 35.2027 199.049 34.8615 199.067 34.6136C199.094 34.2787 199.222 34.3435 199.578 34.274C203.171 33.5806 206.762 32.8809 210.353 32.1844C211.321 31.9964 212.288 31.8084 213.254 31.6221L215.47 43.0842Z" fill="white"/>
<path d="M229.937 42.0399C229.734 42.3116 229.165 42.2879 228.774 42.3637C225.123 43.0713 221.47 43.7805 217.819 44.4881C217.387 44.5718 216.956 44.6555 216.524 44.7392C215.938 44.853 215.879 44.9746 215.725 44.4028C215.487 43.5199 215.374 42.5833 215.2 41.6861C214.843 39.835 214.486 37.9855 214.129 36.1343C213.853 34.7049 213.577 33.2755 213.301 31.8461C213.212 31.3786 213.12 30.9095 213.03 30.442C213.012 30.3425 212.925 30.1292 212.952 30.0329C213.1 29.4753 215.318 29.36 215.873 29.2526C217.016 29.0315 218.16 28.8088 219.302 28.5877C221.254 28.2086 223.207 27.8343 225.159 27.4536C225.627 27.362 226.094 27.2609 226.565 27.1788C227.019 27.0998 227.031 27.0224 227.203 27.3683C227.291 27.5468 227.294 27.839 227.332 28.0333C227.661 29.7423 227.992 31.4528 228.322 33.1618C228.769 35.4789 229.217 37.7959 229.664 40.113C229.756 40.5837 230.096 41.4224 230.006 41.8852C229.992 41.9452 229.97 41.9973 229.937 42.0399Z" fill="white"/>
<path opacity="0.8" d="M199.293 35.7565L198.123 35.9834L199.805 44.6953L200.975 44.4684L199.293 35.7565Z" fill="#CFE0E2"/>
<path opacity="0.8" d="M213.26 31.6174L212.09 31.8442L214.304 43.3087L215.473 43.0818L213.26 31.6174Z" fill="#CFE0E2"/>
<path d="M196.42 47.0056C196.42 47.0056 193.653 44.4769 193.845 43.9367C194.036 43.3966 194.732 43.6746 194.89 43.7804C195.046 43.8846 196.883 45.2619 197.055 45.2287C197.227 45.1956 200.633 44.3379 200.668 44.4943C200.703 44.6507 200.427 46.9867 200.112 47.2236C200.11 47.2236 196.891 46.9898 196.42 47.0056Z" fill="#F8A475"/>
<path d="M183.237 87.813C183.237 87.813 185.412 93.8813 185.412 99.253C185.412 101.726 184.324 157.979 184.324 157.979H177.24L173.937 105.899C173.937 105.899 166.663 97.2029 166.479 92.2007L183.237 87.813Z" fill="#042B30"/>
<path d="M172.04 67.4915C176.499 78.0724 181.074 93.4863 180.678 94.7973C178.806 100.995 164.704 100.897 163.507 100.993C162.309 101.09 163.36 85.8749 163.166 83.5468C162.973 81.2186 160.637 70.0787 161.074 65.1919C161.507 60.3413 164.665 57.8979 165.716 57.5599C165.714 57.552 165.714 57.5425 165.714 57.5425C165.714 57.5425 165.785 57.5267 165.922 57.4983C165.981 57.4825 166.015 57.4746 166.015 57.4746C166.015 57.4746 168.956 59.708 172.04 67.4915Z" fill="#0F8D69"/>
<path d="M179.419 88.8108C179.419 88.8108 180.963 93.6519 180.342 95.6167C179.721 97.5831 173.754 100.349 169.997 100.492L171.115 102.159C171.115 102.159 177.881 101.086 180.761 97.9669C181.403 97.272 181.783 96.3796 181.879 95.4382C181.935 94.8791 181.953 94.181 181.831 93.4702C181.557 91.8544 180.117 88.6592 180.117 88.6592L179.419 88.8108Z" fill="#021D21"/>
<path d="M186.058 87.0706L186.061 87.069C186.061 87.069 183.377 72.8555 179.389 65.481L178.458 65.7605C178.458 65.7605 182.109 74.7713 183.247 87.8051L183.236 87.8114L185.196 96.0988C185.196 96.0988 186.831 94.8021 187.076 94.1071C187.269 93.5654 186.431 89.0197 186.058 87.0706Z" fill="#087F5D"/>
<path d="M183.341 157.977C183.341 157.977 183.341 160.522 183.341 160.619C183.341 160.717 189.652 163.294 189.75 163.717C189.847 164.14 178.04 163.75 178.04 163.717C178.04 163.684 179.113 157.977 179.113 157.977H183.341Z" fill="#254768"/>
<path d="M173.667 157.884C173.667 157.884 173.667 160.429 173.667 160.527C173.667 160.625 179.978 163.201 180.076 163.624C180.174 164.047 168.366 163.657 168.366 163.624C168.366 163.591 169.44 157.884 169.44 157.884H173.667Z" fill="#254768"/>
<path d="M170.316 57.2218C170.316 57.2218 173.844 59.8248 176.705 65.4808C179.569 71.1369 180.7 75.6115 180.702 75.9147C180.703 76.218 180.659 79.459 180.401 79.7181C180.142 79.9771 176.907 75.8705 176.82 75.4377C176.734 75.005 170.606 58.239 168.603 57.2202C168.603 57.2218 169.663 56.8964 170.316 57.2218Z" fill="#F7D131"/>
<path d="M165.922 57.5016C165.922 57.5016 144.008 56.3028 143.367 56.1733C142.725 56.0453 129.643 37.1471 128.233 36.8896C126.823 36.6322 123.102 39.8464 123.232 40.7467C123.359 41.647 138.493 65.4289 140.289 66.1997C142.084 66.9705 164.529 70.4421 165.042 69.9272C165.554 69.4139 165.922 57.5016 165.922 57.5016Z" fill="#0F8D69"/>
<path d="M161.178 69.6665C161.178 69.6665 166.362 69.9113 166.479 70.2951C166.595 70.6789 161.794 73.5851 161.977 75.3447C161.977 75.3462 161.072 71.2886 161.178 69.6665Z" fill="#087F5D"/>
<path d="M107.898 86.2794C107.786 86.2794 107.671 86.2557 107.562 86.2067C107.157 86.0204 106.979 85.5418 107.163 85.1359C121.043 54.7076 132.508 1.40707 132.622 0.871632C132.714 0.435701 133.143 0.157716 133.58 0.250904C134.015 0.344092 134.293 0.773705 134.199 1.21122C134.084 1.74823 122.582 55.2193 108.632 85.8071C108.496 86.1041 108.205 86.2794 107.898 86.2794Z" fill="#254768"/>
<path d="M133.411 0.694574L128.629 20.9717C128.629 20.9717 100.447 2.26772 97.1131 1.37848C93.7788 0.487665 115.498 -0.821708 133.411 0.694574Z" fill="#F7D131"/>
<path d="M127.507 36.9762C127.507 36.9762 127.195 34.3622 126.925 33.9973C126.657 33.6325 123.011 33.4003 122.742 33.7857C122.472 34.1711 122.819 35.1709 123.471 35.3635C124.124 35.5562 125.428 35.9795 125.428 35.9795C125.428 35.9795 124.768 38.4782 124.848 38.6425C124.929 38.8052 126.936 37.1847 127.507 36.9762Z" fill="#F8A475"/>
<path d="M122.905 34.9136C122.905 34.9136 124.409 35.6464 124.447 36.1187C124.483 36.591 124.177 37.2559 123.676 37.2559C123.676 37.2559 124.059 38.0867 123.802 38.4374C123.544 38.788 123.227 38.8622 123.227 38.8622C123.227 38.8622 123.692 40.1179 122.753 40.2095C121.813 40.3011 121.003 39.9694 120.745 39.3598C120.487 38.7517 121.218 34.9152 122.905 34.9136Z" fill="#F8A475"/>
<path d="M205.763 191.234C205.763 186.644 205.763 182.053 205.763 177.463C205.763 174.238 205.763 171.012 205.763 167.786C205.763 166.948 206.078 165.358 205.763 164.581C204.726 162.021 195.021 163.349 192.46 163.349C186.876 163.349 181.29 163.349 175.705 163.349C171.562 163.349 167.418 163.349 163.275 163.349C161.126 163.349 158.912 163.191 156.769 163.349C153.6 163.581 154.377 165.668 154.386 168.297C154.397 171.466 154.386 174.633 154.386 177.801C154.386 182.279 154.394 186.756 154.386 191.234C138.928 191.234 123.471 191.234 108.013 191.234C104.081 191.234 103.278 190.454 102.992 194.458C102.654 199.22 102.955 204.097 102.98 208.867C102.997 212.023 103.018 215.177 103.03 218.333C103.035 219.284 102.435 223.359 103.171 224.052C103.947 224.78 106.629 224.112 107.658 224.096C108.914 224.078 110.172 224.096 111.429 224.096C114.63 224.096 117.828 224.096 121.029 224.096C128.096 224.096 135.163 224.096 142.231 224.096C146.282 224.096 150.335 224.096 154.386 224.096C154.413 224.096 205.763 224.096 205.763 224.096C219.33 224.096 232.896 224.096 246.464 224.096C248.438 224.096 254.899 225.193 256.426 224.098C258.031 222.947 257.139 217.588 257.139 215.446C257.138 208.572 257.136 201.7 257.141 194.826C257.143 191.645 257.303 191.367 254.601 191.236C252.997 191.158 251.369 191.236 249.763 191.236C239.814 191.236 229.864 191.236 219.915 191.236C215.197 191.234 210.481 191.234 205.763 191.234Z" fill="#0F8D69"/>
<path d="M183.576 211.031C183.576 211.671 183.363 212.182 182.938 212.566C182.512 212.95 181.895 213.141 181.088 213.141C179.599 213.141 178.855 212.438 178.855 211.031V177.011C176.559 179.996 174.537 182.49 172.795 184.493C172.667 184.621 172.465 184.728 172.188 184.812C171.911 184.897 171.646 184.94 171.391 184.94C170.71 184.94 170.168 184.769 169.764 184.428C169.359 184.087 169.158 183.619 169.158 183.021C169.158 182.765 169.243 182.468 169.413 182.125C169.582 181.784 169.796 181.465 170.051 181.167C171.583 179.375 172.922 177.736 174.071 176.242C175.22 174.751 176.006 173.727 176.431 173.173L177.643 171.574C177.94 171.105 178.344 170.766 178.855 170.551C179.366 170.338 179.876 170.232 180.387 170.232C181.28 170.232 182.024 170.478 182.62 170.968C183.215 171.459 183.513 172.13 183.513 172.982L183.576 211.031Z" fill="white"/>
<path opacity="0.2" d="M284.15 129.203C284.343 129.425 284.591 129.618 284.893 129.768C285.96 130.297 288.672 129.768 289.854 129.768C295.639 129.768 301.423 129.768 307.208 129.768C323.933 129.768 340.884 130.452 357.552 129.754C357.584 124.734 354.042 117.876 348.381 117.876C340.342 117.876 337.65 120.189 337.657 120.184C341.084 117.178 337.324 112.986 334.83 110.882C329.034 105.992 321.36 106.897 315.005 110.26C312.362 111.659 306.611 115.051 308.688 118.867C308.686 118.865 304.731 111.596 299.455 114.24C294.197 116.876 291.887 125.094 291.872 125.147C292.058 124.485 287.93 123.179 287.456 123.213C284.436 123.434 282.555 127.374 284.15 129.203Z" fill="url(#paint2_linear_4_5577)"/>
<path opacity="0.2" d="M61.851 112.535C61.1025 113.236 60.1098 113.688 59.0587 113.659C46.9883 113.342 35.2252 113.852 23.1547 113.534C18.1469 113.403 13.7789 113.816 8.58671 113.533C7.0976 113.452 -0.839576 113.714 0.0727976 111.753C-0.0438097 111.274 0.0948584 110.773 0.254012 110.306C1.02457 108.052 2.40809 105.702 4.19502 104.088C7.34972 101.237 12.4363 103.394 12.523 107.716C13.4401 103.574 16.7098 100.311 20.3593 98.1631C22.0375 97.1759 23.8607 96.3593 25.7957 96.1508C28.7078 95.8365 31.6986 96.9753 33.8164 99.0034C35.9343 101.031 37.1902 103.884 37.4738 106.806C39.2229 104.43 41.503 102.448 44.0983 101.052C45.1352 100.494 46.2572 100.019 47.4358 99.9953C48.999 99.9621 50.496 100.741 51.629 101.823C53.5451 103.653 54.541 106.406 54.2416 109.042C55.3242 108.095 56.4619 107.157 57.8155 106.673C59.1691 106.188 60.7968 106.236 61.9141 107.141C63.8617 108.727 63.3464 111.132 61.851 112.535Z" fill="url(#paint3_linear_4_5577)"/>
</g>
<defs>
<linearGradient id="paint0_linear_4_5577" x1="84.1946" y1="37.4082" x2="84.1946" y2="45.4195" gradientUnits="userSpaceOnUse">
<stop stop-color="white"/>
<stop offset="1" stop-color="white" stop-opacity="0"/>
</linearGradient>
<linearGradient id="paint1_linear_4_5577" x1="299.476" y1="20.9717" x2="299.476" y2="28.983" gradientUnits="userSpaceOnUse">
<stop stop-color="white"/>
<stop offset="1" stop-color="white" stop-opacity="0"/>
</linearGradient>
<linearGradient id="paint2_linear_4_5577" x1="320.561" y1="107.476" x2="320.561" y2="130.068" gradientUnits="userSpaceOnUse">
<stop stop-color="white"/>
<stop offset="1" stop-color="white" stop-opacity="0"/>
</linearGradient>
<linearGradient id="paint3_linear_4_5577" x1="31.5913" y1="96.0991" x2="31.5913" y2="113.66" gradientUnits="userSpaceOnUse">
<stop stop-color="white"/>
<stop offset="1" stop-color="white" stop-opacity="0"/>
</linearGradient>
</defs>
</svg>
