<svg width="389" height="272" viewBox="0 0 389 272" fill="none" xmlns="http://www.w3.org/2000/svg">
<path opacity="0.2" d="M285.125 161.88C284.605 162.368 283.915 162.682 283.184 162.662C274.794 162.441 266.618 162.796 258.228 162.575C254.747 162.484 251.711 162.77 248.102 162.574C247.067 162.518 241.549 162.7 242.184 161.337C242.103 161.004 242.199 160.656 242.31 160.331C242.845 158.764 243.807 157.131 245.049 156.009C247.242 154.027 250.777 155.527 250.838 158.531C251.475 155.652 253.748 153.384 256.285 151.891C257.451 151.205 258.718 150.637 260.063 150.492C262.087 150.274 264.166 151.065 265.638 152.475C267.11 153.884 267.983 155.867 268.181 157.898C269.396 156.247 270.981 154.869 272.785 153.899C273.506 153.511 274.286 153.181 275.105 153.164C276.192 153.141 277.232 153.682 278.02 154.434C279.352 155.707 280.044 157.62 279.836 159.453C280.588 158.794 281.379 158.142 282.32 157.806C283.261 157.469 284.392 157.502 285.169 158.131C286.522 159.233 286.164 160.905 285.125 161.88Z" fill="url(#paint0_linear_6_5581)"/>
<path d="M197.685 195.735C155.01 195.735 120.414 176.011 120.414 151.677C120.414 127.349 155.012 107.623 197.685 107.623C240.363 107.623 274.955 127.349 274.955 151.677C274.955 176.013 240.363 195.735 197.685 195.735Z" fill="#0D8361"/>
<path d="M130.365 130.375V145.919C130.365 167.119 160.507 184.301 197.685 184.301C234.865 184.301 265.003 167.119 265.003 145.919V130.375H130.365V130.375Z" fill="#044149"/>
<path d="M197.685 168.756C160.508 168.756 130.365 151.573 130.365 130.373C130.365 109.18 160.507 91.9927 197.685 91.9927C234.865 91.9927 265.003 109.178 265.003 130.373C265.002 151.573 234.865 168.756 197.685 168.756Z" fill="#106570"/>
<path d="M197.685 160.609C168.399 160.609 144.655 147.074 144.655 130.373C144.655 113.678 168.398 100.141 197.685 100.141C226.973 100.141 250.713 113.679 250.713 130.373C250.713 147.074 226.973 160.609 197.685 160.609Z" fill="white"/>
<path d="M197.684 153.268C219.861 153.268 237.839 143.019 237.839 130.375C237.839 117.731 219.861 107.481 197.684 107.481C175.506 107.481 157.528 117.731 157.528 130.375C157.528 143.019 175.506 153.268 197.684 153.268Z" fill="#106570"/>
<path d="M197.685 145.396C183.133 145.396 171.337 138.671 171.337 130.373C171.337 122.077 183.133 115.352 197.685 115.352C212.237 115.352 224.033 122.079 224.033 130.373C224.031 138.672 212.235 145.396 197.685 145.396Z" fill="white"/>
<path d="M197.685 137.969C190.328 137.969 184.364 134.57 184.364 130.375C184.364 126.181 190.328 122.78 197.685 122.78C205.041 122.78 211.005 126.181 211.005 130.375C211.005 134.57 205.041 137.969 197.685 137.969Z" fill="#106570"/>
<path d="M197.685 132.942C195.198 132.942 193.181 131.794 193.181 130.375C193.181 128.958 195.198 127.807 197.685 127.807C200.173 127.807 202.189 128.958 202.189 130.375C202.188 131.794 200.171 132.942 197.685 132.942Z" fill="#044149"/>
<path d="M197.684 70.3029V41.0658L211.211 33.9609V61.8327L197.684 70.3029Z" fill="#F7D131"/>
<path d="M197.684 70.3029V41.0658L184.158 33.9609V61.8327L197.684 70.3029Z" fill="#F7D131"/>
<path d="M197.684 39.5625V131.014" stroke="#106570" stroke-width="4" stroke-miterlimit="10"/>
<path d="M224.159 219.916L244.688 211.276C245.388 211.689 246.214 212.391 246.294 212.494C247.254 213.758 246.016 215.483 247.625 216.569C249.607 217.906 254.483 217.612 258.518 215.916C258.631 215.869 258.741 215.82 258.851 215.771C262.641 214.081 264.162 211.721 262.235 210.421C261.003 209.591 258.881 209.643 257.151 209.324C256.257 209.159 255.337 208.914 254.615 208.585C254.458 208.513 253.684 208.067 253.231 207.682L273.787 199.033L312.502 225.157L262.874 246.04L246.856 235.231C246.919 235.201 246.985 235.171 247.054 235.14C247.845 234.787 248.987 234.405 249.168 234.364C251.556 233.84 254.788 234.476 256.852 233.608C259.38 232.481 258.864 229.928 255.751 227.828C252.605 225.704 247.994 224.849 245.454 225.918C243.877 226.621 243.938 227.726 243.329 228.631C243.008 229.11 242.537 229.601 241.909 229.989C241.834 230.034 241.545 230.18 241.179 230.344C240.876 230.479 240.523 230.625 240.194 230.736L224.159 219.916Z" fill="#0D8361"/>
<path d="M262.895 200.718C262.891 200.255 262.651 199.836 262.148 199.495C262.068 199.442 261.984 199.393 261.896 199.346C261.869 199.332 261.839 199.318 261.811 199.305C261.748 199.275 261.682 199.245 261.616 199.217C261.599 199.211 261.585 199.203 261.568 199.195C261.554 199.191 261.538 199.186 261.524 199.181C261.417 199.14 261.309 199.103 261.196 199.07C261.194 199.07 261.193 199.068 261.189 199.068L261.188 199.067C261.073 199.034 260.956 199.004 260.835 198.977C260.821 198.974 260.808 198.969 260.794 198.966C260.778 198.963 260.759 198.96 260.744 198.957C260.603 198.927 260.458 198.899 260.311 198.874C260.306 198.872 260.303 198.872 260.3 198.872C260.287 198.869 260.275 198.869 260.264 198.866C260.111 198.841 259.957 198.819 259.802 198.798C259.785 198.797 259.769 198.793 259.752 198.792C259.589 198.77 259.424 198.753 259.259 198.734C259.25 198.732 259.24 198.731 259.231 198.729C259.097 198.713 258.964 198.699 258.831 198.684C258.674 198.666 258.517 198.648 258.363 198.627C258.335 198.622 258.306 198.619 258.277 198.616C258.124 198.596 257.974 198.575 257.826 198.55C257.749 198.538 257.672 198.525 257.597 198.511C257.442 198.483 257.286 198.45 257.131 198.415C257.103 198.409 257.074 198.404 257.046 198.398C256.933 198.373 256.82 198.346 256.707 198.318C256.704 198.316 256.701 198.316 256.698 198.315C256.585 198.287 256.473 198.255 256.362 198.224C256.327 198.213 256.291 198.202 256.257 198.192C256.18 198.169 256.105 198.145 256.029 198.12C255.993 198.108 255.955 198.097 255.919 198.083C255.842 198.056 255.765 198.028 255.692 197.999C255.663 197.988 255.634 197.977 255.605 197.966C255.51 197.929 255.417 197.889 255.328 197.849C255.186 197.784 254.494 197.384 254.088 197.042L254.179 207.372C254.585 207.716 255.277 208.114 255.419 208.18C255.508 208.221 255.601 208.26 255.696 208.298C255.704 208.301 255.711 208.304 255.717 208.307C255.739 208.315 255.761 208.323 255.781 208.331C255.857 208.359 255.933 208.388 256.012 208.414C256.046 208.427 256.083 208.438 256.119 208.45C256.196 208.475 256.274 208.5 256.352 208.524C256.374 208.53 256.395 208.538 256.418 208.544C256.429 208.548 256.44 208.551 256.451 208.554C256.563 208.587 256.676 208.618 256.79 208.646H256.792C256.906 208.676 257.023 208.703 257.139 208.73C257.15 208.733 257.161 208.734 257.172 208.737C257.187 208.741 257.203 208.744 257.219 208.747C257.376 208.781 257.533 208.814 257.688 208.843C257.752 208.854 257.815 208.866 257.881 208.876C257.894 208.877 257.906 208.879 257.919 208.882C258.066 208.905 258.215 208.927 258.368 208.948C258.397 208.952 258.427 208.956 258.457 208.959C258.609 208.979 258.763 208.996 258.917 209.014C258.917 209.014 258.92 209.014 258.922 209.015C259.022 209.026 259.124 209.039 259.225 209.05C259.265 209.055 259.306 209.059 259.347 209.064C259.515 209.083 259.681 209.103 259.846 209.124C259.859 209.125 259.873 209.128 259.885 209.13C260.042 209.15 260.199 209.174 260.351 209.197C260.367 209.199 260.384 209.202 260.4 209.205C260.548 209.23 260.692 209.257 260.833 209.288C260.863 209.295 260.894 209.301 260.924 209.309C261.045 209.337 261.164 209.365 261.277 209.4C261.392 209.433 261.503 209.472 261.612 209.513C261.643 209.525 261.673 209.536 261.704 209.549C261.772 209.577 261.836 209.605 261.899 209.637C261.927 209.651 261.955 209.663 261.982 209.678C262.07 209.723 262.155 209.772 262.235 209.825C262.739 210.166 262.979 210.586 262.983 211.048L262.895 200.718Z" fill="#044149"/>
<path d="M247.929 223.467C247.964 223.459 248 223.451 248.036 223.443C248.085 223.432 248.132 223.421 248.18 223.412C248.22 223.404 248.261 223.398 248.3 223.391C248.333 223.385 248.367 223.38 248.4 223.374L248.476 232.029L262.811 241.703L262.72 231.373L250.847 223.36C251.02 223.38 251.195 223.405 251.371 223.434C251.412 223.44 251.453 223.448 251.492 223.454C251.558 223.465 251.622 223.478 251.688 223.49C251.735 223.5 251.782 223.509 251.829 223.518C251.892 223.531 251.955 223.543 252.018 223.558C252.062 223.567 252.106 223.578 252.15 223.587C252.252 223.611 252.354 223.636 252.456 223.661C252.484 223.669 252.512 223.675 252.54 223.683C252.668 223.716 252.795 223.751 252.922 223.788C252.947 223.796 252.97 223.802 252.996 223.81C253.17 223.862 253.346 223.917 253.52 223.977C253.529 223.98 253.537 223.983 253.546 223.986C253.721 224.046 253.893 224.11 254.064 224.176C254.078 224.182 254.093 224.187 254.107 224.192C254.303 224.269 254.499 224.352 254.692 224.438C254.702 224.443 254.711 224.446 254.72 224.451C254.915 224.538 255.108 224.633 255.298 224.73C255.304 224.733 255.31 224.736 255.317 224.739C255.508 224.84 255.698 224.943 255.882 225.052C255.885 225.053 255.888 225.055 255.891 225.056C256.078 225.168 256.262 225.282 256.439 225.403C258.021 226.47 258.853 227.67 258.862 228.691C258.832 225.248 258.801 221.805 258.771 218.361C258.762 217.339 257.93 216.142 256.348 215.073C256.171 214.954 255.987 214.838 255.8 214.728C255.797 214.726 255.792 214.725 255.789 214.722C255.606 214.613 255.417 214.51 255.224 214.409C255.218 214.406 255.212 214.403 255.204 214.4C255.015 214.303 254.822 214.208 254.628 214.121C254.618 214.116 254.609 214.113 254.6 214.108C254.408 214.022 254.212 213.938 254.016 213.862C254.011 213.86 254.008 213.858 254.005 213.857C253.995 213.854 253.984 213.851 253.975 213.846C253.802 213.778 253.626 213.714 253.452 213.654C253.446 213.651 253.438 213.65 253.432 213.647C253.256 213.587 253.08 213.532 252.903 213.479C252.889 213.474 252.876 213.469 252.862 213.466C252.853 213.463 252.845 213.461 252.835 213.458C252.707 213.421 252.578 213.386 252.449 213.352C252.423 213.345 252.398 213.339 252.371 213.333C252.266 213.306 252.161 213.281 252.055 213.257C252.037 213.253 252.016 213.248 251.997 213.243C251.975 213.239 251.953 213.234 251.931 213.229C251.866 213.215 251.8 213.201 251.735 213.188C251.69 213.179 251.644 213.169 251.599 213.162C251.533 213.149 251.467 213.136 251.401 213.126C251.37 213.119 251.337 213.113 251.305 213.108C251.297 213.107 251.29 213.105 251.28 213.104C251.103 213.075 250.925 213.05 250.751 213.03C250.737 213.028 250.723 213.025 250.71 213.024C250.701 213.022 250.69 213.022 250.679 213.02C250.527 213.003 250.375 212.989 250.222 212.98C250.21 212.978 250.197 212.976 250.185 212.976C250.167 212.975 250.152 212.975 250.134 212.973C249.854 212.956 249.58 212.95 249.314 212.958C249.298 212.958 249.282 212.956 249.265 212.958C249.251 212.958 249.238 212.959 249.224 212.959C249.094 212.964 248.967 212.97 248.841 212.98C248.838 212.98 248.835 212.98 248.835 212.98C248.826 212.981 248.818 212.983 248.81 212.983C248.678 212.994 248.551 213.009 248.424 213.027C248.411 213.028 248.395 213.03 248.383 213.031C248.374 213.033 248.364 213.034 248.355 213.036C248.303 213.044 248.251 213.053 248.201 213.063C248.165 213.069 248.127 213.075 248.093 213.082C248.039 213.093 247.987 213.104 247.936 213.115C247.907 213.121 247.879 213.126 247.852 213.133C247.848 213.135 247.845 213.135 247.841 213.137C247.73 213.163 247.622 213.195 247.515 213.228C247.49 213.235 247.466 213.243 247.443 213.251C247.338 213.286 247.233 213.323 247.134 213.366C247.054 213.402 246.981 213.438 246.909 213.476C246.889 213.488 246.868 213.499 246.848 213.51C246.823 213.524 246.796 213.537 246.773 213.552C246.752 213.565 246.733 213.578 246.715 213.59C246.69 213.606 246.663 213.623 246.639 213.639C246.6 213.665 246.564 213.692 246.528 213.72C246.506 213.736 246.484 213.752 246.465 213.769C246.457 213.775 246.449 213.78 246.443 213.786C246.401 213.821 246.36 213.857 246.322 213.895C246.318 213.899 246.313 213.904 246.308 213.909C246.278 213.938 246.247 213.968 246.219 214C246.211 214.009 246.203 214.019 246.195 214.028C246.181 214.044 246.168 214.059 246.154 214.075C246.128 214.106 246.101 214.139 246.077 214.172C246.066 214.188 246.054 214.202 246.043 214.218C246.037 214.226 246.03 214.234 246.026 214.243C246.013 214.26 246.004 214.277 245.993 214.295C245.972 214.326 245.952 214.358 245.931 214.39C245.917 214.416 245.903 214.441 245.889 214.464C245.872 214.496 245.855 214.527 245.837 214.558C245.831 214.569 245.825 214.58 245.82 214.591C245.814 214.604 245.807 214.616 245.803 214.627C245.775 214.682 245.749 214.737 245.724 214.794C245.718 214.806 245.713 214.817 245.707 214.83C245.674 214.904 245.643 214.979 245.61 215.053C245.586 215.109 245.561 215.166 245.536 215.222C245.527 215.244 245.517 215.266 245.508 215.288C245.478 215.356 245.445 215.423 245.412 215.491C245.395 215.527 245.374 215.561 245.355 215.596C245.346 215.613 245.338 215.629 245.329 215.646C245.299 215.696 245.268 215.748 245.235 215.798C245.213 215.83 245.191 215.861 245.169 215.892C245.136 215.938 245.101 215.983 245.065 216.029C245.049 216.049 245.035 216.068 245.02 216.087C244.973 216.145 244.922 216.203 244.869 216.261C244.864 216.266 244.861 216.271 244.856 216.275C244.801 216.335 244.742 216.396 244.681 216.456C244.663 216.473 244.645 216.489 244.626 216.506C244.58 216.548 244.535 216.589 244.486 216.63C244.462 216.65 244.439 216.669 244.414 216.69C244.367 216.729 244.317 216.767 244.266 216.804C244.243 216.822 244.219 216.839 244.196 216.856C244.12 216.909 244.043 216.961 243.963 217.011C243.957 217.015 243.948 217.021 243.938 217.026C243.935 217.027 243.932 217.029 243.927 217.032C243.918 217.037 243.907 217.043 243.894 217.049C243.888 217.052 243.883 217.055 243.876 217.059C243.863 217.065 243.85 217.071 243.836 217.079C243.827 217.084 243.819 217.087 243.81 217.093C243.797 217.099 243.783 217.107 243.767 217.113C243.755 217.12 243.744 217.126 243.73 217.132C243.717 217.14 243.701 217.146 243.687 217.153C243.671 217.161 243.656 217.168 243.639 217.178C243.624 217.184 243.607 217.192 243.591 217.2C243.574 217.208 243.557 217.215 243.538 217.225C243.515 217.236 243.488 217.248 243.463 217.259C243.45 217.264 243.439 217.27 243.428 217.275C243.391 217.292 243.351 217.31 243.309 217.328C243.039 217.449 242.722 217.58 242.427 217.68L228.076 207.997L228.167 218.327L242.518 228.01C242.813 227.911 243.13 227.779 243.4 227.659C243.478 227.624 243.552 227.589 243.623 227.557C243.624 227.555 243.626 227.555 243.628 227.555C243.66 227.539 243.69 227.525 243.72 227.511C243.723 227.509 243.726 227.508 243.728 227.508C243.752 227.497 243.773 227.486 243.794 227.476C243.803 227.472 243.813 227.467 243.821 227.464C243.838 227.456 243.854 227.448 243.869 227.44C243.879 227.436 243.891 227.429 243.901 227.425C243.915 227.418 243.926 227.412 243.937 227.406C243.948 227.401 243.959 227.395 243.967 227.39C243.976 227.385 243.984 227.381 243.992 227.378C244.001 227.373 244.01 227.368 244.018 227.364C244.025 227.36 244.029 227.357 244.036 227.354C244.042 227.351 244.048 227.348 244.051 227.345C244.053 227.343 244.054 227.343 244.054 227.343C244.138 227.293 244.215 227.24 244.29 227.186C244.313 227.17 244.335 227.153 244.357 227.136C244.409 227.098 244.459 227.059 244.508 227.018C244.519 227.009 244.533 226.999 244.544 226.99C244.555 226.981 244.566 226.97 244.577 226.96C244.624 226.919 244.671 226.879 244.715 226.836C244.734 226.819 244.753 226.802 244.772 226.783C244.833 226.725 244.891 226.665 244.947 226.604C244.947 226.602 244.949 226.602 244.949 226.601C244.954 226.596 244.957 226.591 244.962 226.587C245.013 226.53 245.062 226.472 245.109 226.414C245.125 226.394 245.14 226.375 245.156 226.354C245.191 226.309 245.225 226.265 245.257 226.219C245.264 226.207 245.275 226.196 245.283 226.183C245.297 226.164 245.31 226.144 245.324 226.125C245.357 226.075 245.388 226.025 245.418 225.973C245.429 225.954 245.439 225.935 245.448 225.916C245.465 225.885 245.483 225.855 245.498 225.824C245.5 225.822 245.5 225.821 245.501 225.819C245.536 225.752 245.567 225.684 245.599 225.615C245.608 225.593 245.618 225.573 245.627 225.552C245.652 225.496 245.677 225.439 245.701 225.383C245.732 225.308 245.765 225.232 245.8 225.157C245.804 225.146 245.809 225.136 245.814 225.125C245.84 225.067 245.867 225.011 245.895 224.954C245.906 224.932 245.917 224.91 245.928 224.888C245.946 224.856 245.963 224.823 245.982 224.791C245.996 224.766 246.008 224.743 246.024 224.719C246.043 224.686 246.065 224.655 246.087 224.623C246.103 224.598 246.12 224.573 246.137 224.548C246.148 224.532 246.161 224.518 246.172 224.501C246.195 224.469 246.222 224.436 246.247 224.405C246.261 224.389 246.274 224.374 246.288 224.358C246.322 224.319 246.36 224.28 246.399 224.242C246.404 224.237 246.409 224.231 246.413 224.226C246.457 224.184 246.506 224.141 246.556 224.101C246.577 224.085 246.597 224.069 246.617 224.054C246.653 224.025 246.691 223.999 246.73 223.972C246.754 223.956 246.779 223.939 246.806 223.923C246.85 223.897 246.894 223.868 246.941 223.842C246.961 223.831 246.98 223.82 247.002 223.809C247.072 223.771 247.146 223.733 247.226 223.699C247.325 223.656 247.43 223.62 247.535 223.584C247.559 223.576 247.584 223.569 247.608 223.561C247.71 223.525 247.816 223.493 247.929 223.467Z" fill="#044149"/>
<path d="M307.135 212.683L307.224 223.013L262.811 241.703L262.718 231.373L307.135 212.683Z" fill="#0F5862"/>
<path d="M228.071 207.992L246.445 200.259C247.071 200.628 247.81 201.257 247.882 201.35C248.741 202.481 247.633 204.024 249.073 204.996C250.848 206.192 255.212 205.931 258.821 204.412C258.922 204.369 259.022 204.327 259.119 204.283C262.513 202.77 263.873 200.658 262.148 199.495C261.047 198.751 259.146 198.798 257.599 198.512C256.798 198.365 255.976 198.145 255.329 197.85C255.188 197.786 254.496 197.385 254.089 197.043L272.486 189.303L307.135 212.683L262.72 231.372L248.386 221.698C248.443 221.671 248.502 221.643 248.563 221.616C249.271 221.299 250.293 220.958 250.456 220.922C252.594 220.453 255.486 221.023 257.332 220.246C259.595 219.238 259.134 216.952 256.348 215.073C253.532 213.172 249.406 212.406 247.132 213.364C245.721 213.993 245.776 214.982 245.23 215.793C244.943 216.222 244.521 216.661 243.959 217.008C243.891 217.049 243.632 217.179 243.306 217.325C243.036 217.446 242.719 217.576 242.424 217.677L228.071 207.992Z" fill="#106570"/>
<path d="M148.764 235.119C147.534 234.287 145.409 234.341 143.681 234.022C142.785 233.857 141.863 233.613 141.143 233.283C140.986 233.211 140.211 232.764 139.759 232.381L160.314 223.731L144.297 212.924C144.362 212.893 144.432 212.86 144.505 212.828C145.296 212.475 146.43 212.096 146.611 212.056C148.998 211.532 152.229 212.168 154.376 211.264C156.822 210.173 156.307 207.619 153.193 205.52C150.046 203.395 145.435 202.541 142.819 203.643C141.32 204.311 141.38 205.418 140.769 206.323C140.448 206.802 139.977 207.293 139.349 207.681C139.274 207.726 138.985 207.872 138.621 208.035C138.318 208.17 137.965 208.316 137.635 208.428L121.6 197.606L71.9697 218.489L110.685 244.613L131.218 235.973C131.915 236.386 132.74 237.087 132.822 237.192C133.782 238.456 132.544 240.181 134.153 241.267C136.135 242.604 141.011 242.31 145.046 240.614C145.159 240.567 145.271 240.518 145.38 240.469C149.172 238.779 150.69 236.419 148.764 235.119Z" fill="#0D8361"/>
<path d="M153.162 197.925C153.162 197.95 153.16 197.976 153.159 198.001C153.159 198.027 153.157 198.054 153.155 198.081C153.154 198.103 153.151 198.125 153.148 198.147C153.144 198.172 153.141 198.198 153.138 198.223C153.133 198.249 153.129 198.274 153.124 198.297C153.121 198.316 153.116 198.335 153.113 198.354C153.107 198.38 153.099 198.406 153.091 198.429C153.086 198.448 153.082 198.465 153.075 198.482C153.072 198.493 153.068 198.503 153.064 198.514C153.039 198.584 153.011 198.654 152.978 198.719C152.978 198.721 152.977 198.723 152.977 198.724C152.944 198.788 152.904 198.851 152.862 198.912C152.856 198.922 152.849 198.933 152.842 198.942C152.799 199.002 152.752 199.06 152.702 199.116C152.688 199.132 152.674 199.148 152.658 199.164C152.642 199.181 152.625 199.197 152.609 199.214C152.59 199.233 152.57 199.25 152.551 199.269C152.534 199.284 152.515 199.302 152.496 199.317C152.479 199.332 152.462 199.346 152.444 199.36C152.413 199.385 152.379 199.41 152.346 199.435C152.328 199.448 152.31 199.462 152.291 199.473C152.255 199.498 152.215 199.523 152.176 199.547C152.159 199.558 152.143 199.569 152.124 199.579C152.09 199.6 152.055 199.619 152.019 199.638C152 199.649 151.98 199.66 151.961 199.671C151.903 199.699 151.845 199.727 151.784 199.755C151.553 199.853 151.31 199.929 151.054 199.991C150.85 200.039 150.641 200.079 150.425 200.11C150.219 200.14 150.01 200.162 149.795 200.181C149.499 200.204 149.193 200.218 148.885 200.228C148.212 200.247 147.52 200.24 146.848 200.259C146.545 200.268 146.247 200.281 145.955 200.305L146.046 210.635C146.338 210.611 146.636 210.597 146.939 210.589C147.611 210.57 148.303 210.577 148.976 210.558C149.284 210.548 149.588 210.534 149.886 210.511C150.1 210.493 150.31 210.47 150.516 210.44C150.731 210.409 150.941 210.369 151.143 210.321C151.399 210.26 151.642 210.183 151.873 210.085C151.934 210.059 151.992 210.03 152.051 210.001C152.066 209.993 152.082 209.983 152.099 209.974C152.138 209.954 152.178 209.932 152.215 209.91C152.218 209.908 152.223 209.905 152.226 209.903C152.237 209.895 152.248 209.889 152.259 209.881C152.3 209.856 152.341 209.831 152.379 209.804C152.397 209.792 152.415 209.779 152.432 209.767C152.466 209.742 152.499 209.717 152.531 209.691C152.54 209.684 152.551 209.676 152.561 209.668C152.568 209.662 152.575 209.655 152.583 209.647C152.601 209.632 152.619 209.614 152.638 209.599C152.658 209.582 152.677 209.563 152.696 209.544C152.713 209.528 152.729 209.511 152.746 209.494C152.755 209.483 152.766 209.473 152.776 209.462C152.78 209.458 152.783 209.451 152.788 209.447C152.84 209.39 152.887 209.332 152.929 209.272C152.933 209.269 152.936 209.265 152.939 209.261C152.944 209.255 152.947 209.249 152.95 209.243C152.992 209.18 153.031 209.117 153.063 209.053L153.064 209.051C153.064 209.05 153.064 209.049 153.066 209.048C153.101 208.98 153.129 208.91 153.154 208.839C153.155 208.833 153.159 208.828 153.16 208.824C153.162 208.819 153.163 208.816 153.163 208.811C153.17 208.791 153.176 208.77 153.182 208.75C153.188 208.728 153.195 208.704 153.201 208.682C153.206 208.662 153.21 208.64 153.214 208.619C153.217 208.602 153.221 208.585 153.224 208.568C153.226 208.561 153.226 208.555 153.228 208.549C153.232 208.522 153.235 208.494 153.239 208.466C153.24 208.447 153.243 208.426 153.245 208.406C153.248 208.376 153.248 208.345 153.25 208.313C153.25 208.298 153.251 208.284 153.251 208.268C153.251 208.26 153.251 208.254 153.251 208.248L153.162 197.925Z" fill="#119D75"/>
<path d="M144.833 200.466C144.83 200.466 144.826 200.468 144.822 200.469C144.63 200.516 143.64 200.849 142.946 201.158C142.882 201.187 142.819 201.215 142.761 201.245L142.852 211.575C142.91 211.546 142.973 211.518 143.037 211.488C143.731 211.179 144.72 210.847 144.911 210.799C144.916 210.798 144.919 210.798 144.922 210.796C145.084 210.76 145.252 210.73 145.421 210.705C145.624 210.675 145.832 210.653 146.044 210.636L145.953 200.306C145.741 200.323 145.533 200.345 145.329 200.375C145.161 200.4 144.994 200.432 144.833 200.466Z" fill="#119D75"/>
<path d="M157.187 221.246L157.096 210.916L138.699 218.656L138.775 227.252C136.639 227.508 134.719 227.307 133.683 226.608C132.994 226.142 132.889 225.547 132.872 224.929C132.87 224.758 132.869 224.589 132.867 224.417C132.862 223.909 132.826 223.405 132.492 222.963C132.42 222.87 131.681 222.241 131.058 221.872L112.681 229.604L112.772 239.935L131.149 232.202C131.772 232.571 132.512 233.198 132.583 233.293C132.884 233.688 132.943 234.134 132.955 234.589C132.957 234.758 132.958 234.93 132.96 235.101C132.966 235.775 133.027 236.435 133.774 236.94C135.549 238.136 139.912 237.875 143.524 236.356C143.626 236.312 143.726 236.27 143.823 236.226C146.225 235.156 147.607 233.784 147.598 232.66C147.576 230.209 147.556 227.759 147.534 225.307L157.187 221.246Z" fill="#17A77E"/>
<path d="M151.782 199.758L151.873 210.088C149.951 210.898 147.06 210.328 144.922 210.798C144.76 210.834 143.745 211.173 143.037 211.488C142.973 211.517 142.912 211.546 142.852 211.575L142.761 201.245C142.819 201.216 142.882 201.188 142.946 201.158C143.654 200.843 144.669 200.502 144.831 200.468C146.969 199.997 149.861 200.567 151.782 199.758Z" fill="#119D75"/>
<path d="M112.681 229.605L78.0325 206.225L78.1235 216.555L112.772 239.935L112.681 229.605Z" fill="#119D75"/>
<path d="M146.758 221.108C145.657 220.364 143.756 220.411 142.21 220.125C141.408 219.978 140.584 219.758 139.939 219.463C139.799 219.398 139.104 218.998 138.699 218.655L157.096 210.914L142.763 201.242C142.821 201.213 142.883 201.185 142.948 201.155C143.656 200.84 144.671 200.499 144.833 200.465C146.969 199.995 149.861 200.565 151.784 199.755C153.971 198.779 153.512 196.494 150.724 194.615C147.909 192.715 143.781 191.949 141.439 192.936C140.098 193.534 140.151 194.524 139.605 195.336C139.318 195.764 138.895 196.204 138.334 196.551C138.266 196.591 138.007 196.722 137.681 196.868C137.411 196.988 137.094 197.119 136.799 197.219L122.448 187.536L78.0325 206.225L112.681 229.605L131.058 221.872C131.681 222.241 132.42 222.87 132.492 222.963C133.351 224.093 132.244 225.637 133.683 226.608C135.457 227.804 139.821 227.544 143.433 226.025C143.535 225.982 143.635 225.938 143.732 225.894C147.124 224.383 148.483 222.271 146.758 221.108Z" fill="#23B88D"/>
<path d="M51.771 109.865L97.3084 90.7041L132.833 114.676L113.971 122.612C114.387 122.966 115.096 123.375 115.242 123.441C115.903 123.742 116.747 123.968 117.568 124.119C119.155 124.413 121.103 124.364 122.233 125.127C124 126.319 122.608 128.485 119.13 130.034C119.029 130.08 118.926 130.124 118.822 130.168C115.12 131.725 110.645 131.995 108.826 130.767C107.35 129.771 108.486 128.189 107.604 127.03C107.532 126.935 106.774 126.29 106.132 125.911L87.2937 133.839L72.5959 123.921C72.6556 123.893 72.7183 123.863 72.7843 123.835C73.5109 123.512 74.553 123.163 74.7194 123.126C76.9119 122.644 79.8766 123.229 81.7693 122.432C84.0889 121.398 83.6165 119.055 80.7617 117.127C77.874 115.178 73.6443 114.393 71.3121 115.374C69.8651 116.018 69.9232 117.033 69.3613 117.865C69.0678 118.303 68.6347 118.755 68.0587 119.109C67.9896 119.152 67.7275 119.284 67.3948 119.433C67.1154 119.557 66.7874 119.692 66.4829 119.795L51.771 109.865Z" fill="#0D8361"/>
<path d="M74.2972 113.638C74.3286 113.63 74.3599 113.624 74.3913 113.618C74.44 113.607 74.4871 113.596 74.5373 113.586C74.5718 113.58 74.6079 113.574 74.6424 113.568C74.677 113.561 74.7099 113.555 74.7445 113.55L74.8167 121.79L88.4598 130.996L88.3735 121.165L77.0704 113.539C77.2367 113.56 77.4031 113.582 77.571 113.61C77.6071 113.616 77.6448 113.622 77.6809 113.629C77.7452 113.64 77.8096 113.651 77.8739 113.663C77.9163 113.671 77.9603 113.681 78.0026 113.688C78.0654 113.701 78.1282 113.714 78.191 113.728C78.2302 113.737 78.2694 113.745 78.3087 113.754C78.4075 113.776 78.5064 113.8 78.6053 113.825C78.632 113.831 78.6571 113.838 78.6838 113.845C78.8062 113.877 78.927 113.911 79.0494 113.946C79.0714 113.952 79.0934 113.958 79.1138 113.965C79.2817 114.015 79.4496 114.068 79.6176 114.125C79.6239 114.126 79.6301 114.129 79.6364 114.131C79.8043 114.189 79.9723 114.25 80.1371 114.315C80.1496 114.319 80.1606 114.324 80.1732 114.329C80.3615 114.403 80.5483 114.481 80.7319 114.564C80.7397 114.569 80.7491 114.572 80.757 114.575C80.9438 114.66 81.1274 114.748 81.3079 114.842C81.3141 114.845 81.3204 114.848 81.3251 114.851C81.5072 114.946 81.6877 115.046 81.8619 115.148C81.865 115.15 81.8682 115.151 81.8713 115.154C82.0502 115.259 82.2244 115.369 82.3924 115.484C83.8975 116.501 84.69 117.64 84.6994 118.613C84.6712 115.336 84.6414 112.059 84.6131 108.782C84.6053 107.811 83.8127 106.67 82.3076 105.653C82.1381 105.538 81.9639 105.428 81.7865 105.323C81.7834 105.322 81.7803 105.319 81.7756 105.317C81.5998 105.213 81.4209 105.115 81.2388 105.02C81.2325 105.017 81.2263 105.014 81.22 105.011C81.0395 104.918 80.8574 104.829 80.6707 104.746C80.6613 104.741 80.6518 104.738 80.6424 104.733C80.4588 104.65 80.2736 104.573 80.0868 104.499C80.0837 104.498 80.079 104.496 80.0759 104.495C80.0664 104.49 80.0555 104.487 80.0445 104.484C79.8812 104.419 79.718 104.36 79.5517 104.303C79.5438 104.3 79.536 104.298 79.5281 104.295C79.3633 104.239 79.197 104.187 79.0306 104.137C79.0165 104.132 79.0024 104.127 78.9867 104.123C78.9772 104.12 78.9678 104.118 78.9584 104.115C78.8376 104.08 78.7167 104.046 78.5959 104.014C78.5692 104.007 78.5425 104 78.5143 103.994C78.417 103.969 78.3197 103.945 78.2223 103.923C78.2035 103.919 78.1831 103.914 78.1643 103.909C78.1423 103.905 78.1203 103.9 78.0984 103.895C78.0387 103.883 77.9791 103.87 77.9194 103.857C77.8739 103.848 77.8284 103.839 77.7829 103.831C77.7217 103.82 77.6621 103.809 77.6008 103.798C77.5695 103.792 77.5365 103.785 77.5051 103.781C77.4973 103.779 77.4894 103.779 77.48 103.777C77.3136 103.751 77.1457 103.727 76.9809 103.707C76.9668 103.705 76.9511 103.702 76.937 103.7C76.926 103.699 76.915 103.699 76.9056 103.697C76.7612 103.682 76.6168 103.668 76.474 103.658C76.4614 103.657 76.4504 103.655 76.4379 103.655C76.4222 103.653 76.4065 103.653 76.3892 103.653C76.2558 103.646 76.1209 103.639 75.9906 103.636H75.9859C75.9843 103.636 75.9812 103.636 75.9796 103.636C75.8556 103.633 75.7332 103.635 75.6124 103.638C75.5967 103.638 75.5794 103.638 75.5637 103.638C75.5496 103.638 75.5355 103.639 75.5213 103.639C75.3989 103.644 75.2796 103.65 75.1619 103.66C75.1619 103.66 75.1557 103.66 75.1509 103.66C75.1415 103.66 75.1337 103.661 75.1243 103.663C75.0019 103.674 74.881 103.686 74.7633 103.704C74.7507 103.705 74.7366 103.707 74.7225 103.708C74.7131 103.71 74.7037 103.711 74.6942 103.713C74.6472 103.721 74.6001 103.729 74.5546 103.737C74.5169 103.743 74.4792 103.749 74.4416 103.757C74.396 103.766 74.3521 103.776 74.3066 103.785C74.2752 103.792 74.2438 103.798 74.214 103.806C74.2093 103.807 74.2061 103.809 74.2014 103.809C74.0963 103.834 73.9943 103.864 73.8938 103.895C73.8703 103.903 73.8467 103.909 73.8248 103.917C73.7243 103.95 73.6254 103.986 73.5313 104.025C73.4559 104.06 73.3853 104.094 73.3178 104.131C73.2974 104.141 73.2786 104.152 73.2598 104.163C73.2362 104.178 73.2111 104.19 73.1876 104.203C73.1672 104.215 73.1499 104.228 73.1311 104.24C73.1075 104.256 73.0824 104.272 73.0589 104.287C73.0212 104.313 72.9867 104.339 72.9522 104.364C72.9318 104.38 72.9114 104.394 72.8925 104.41C72.8862 104.415 72.8784 104.421 72.8721 104.426C72.8313 104.459 72.7936 104.493 72.7575 104.528C72.7528 104.532 72.7481 104.537 72.7434 104.542C72.7152 104.57 72.6869 104.598 72.6618 104.626V104.63V104.626C72.6524 104.636 72.6461 104.645 72.6383 104.653C72.6257 104.667 72.6132 104.681 72.6006 104.697C72.5739 104.728 72.5504 104.758 72.5268 104.79C72.5159 104.804 72.5049 104.818 72.4939 104.832C72.4876 104.84 72.4829 104.848 72.4766 104.854C72.4656 104.87 72.4562 104.887 72.4452 104.903C72.4248 104.932 72.4044 104.964 72.3856 104.995C72.3715 105.017 72.3589 105.041 72.3464 105.063C72.3291 105.094 72.3118 105.126 72.2946 105.157C72.2899 105.166 72.2836 105.176 72.2789 105.185C72.2742 105.196 72.2679 105.207 72.2632 105.217C72.2365 105.271 72.2098 105.326 72.1847 105.381C72.18 105.391 72.1753 105.4 72.1721 105.408C72.1392 105.483 72.1062 105.559 72.0733 105.634C72.0529 105.683 72.0309 105.731 72.0105 105.78C72.0011 105.802 71.9901 105.824 71.9807 105.847C71.9509 105.912 71.921 105.976 71.8896 106.041C71.8724 106.072 71.8551 106.103 71.8379 106.136C71.8284 106.154 71.819 106.171 71.8096 106.188C71.7814 106.237 71.7515 106.285 71.7186 106.332C71.6982 106.362 71.6746 106.394 71.6542 106.425C71.6228 106.467 71.5915 106.511 71.5569 106.554C71.5428 106.573 71.5287 106.591 71.513 106.61C71.4675 106.667 71.4188 106.723 71.3686 106.778C71.3655 106.781 71.3623 106.786 71.3592 106.789C71.3058 106.847 71.2493 106.904 71.1912 106.96C71.174 106.976 71.1567 106.993 71.1395 107.009C71.0971 107.048 71.0531 107.089 71.0061 107.127C70.9841 107.145 70.9621 107.164 70.9386 107.182C70.8931 107.219 70.8444 107.255 70.7957 107.293C70.7738 107.309 70.7518 107.326 70.7298 107.342C70.6576 107.392 70.5854 107.442 70.5085 107.489C70.5054 107.491 70.4991 107.494 70.4944 107.497C70.4866 107.502 70.4803 107.505 70.4709 107.51C70.4662 107.511 70.4615 107.514 70.4567 107.517C70.4458 107.524 70.4363 107.528 70.4238 107.535C70.4175 107.538 70.4081 107.542 70.4002 107.547C70.3877 107.553 70.3751 107.56 70.361 107.568C70.3532 107.572 70.3422 107.577 70.3343 107.582C70.3186 107.59 70.3045 107.596 70.2872 107.605C70.2747 107.612 70.2621 107.618 70.2496 107.624C70.2339 107.632 70.2182 107.64 70.2009 107.648C70.1821 107.657 70.1617 107.666 70.1429 107.676C70.1303 107.682 70.1193 107.687 70.1068 107.693C70.0848 107.704 70.0612 107.714 70.0393 107.725C70.0267 107.731 70.0142 107.736 70.0016 107.742C69.9655 107.757 69.9278 107.775 69.8902 107.792C69.6312 107.907 69.3267 108.032 69.0442 108.128L55.387 98.9121L55.4733 108.743L69.1306 117.959C69.4146 117.863 69.7175 117.739 69.9765 117.623C70.0142 117.606 70.0518 117.588 70.0879 117.573C70.0942 117.57 70.1005 117.566 70.1068 117.563C70.1366 117.549 70.1648 117.537 70.1915 117.524C70.2025 117.519 70.2119 117.515 70.2229 117.508C70.2449 117.499 70.2653 117.488 70.2857 117.479C70.2998 117.472 70.3124 117.466 70.3249 117.46C70.3406 117.452 70.3579 117.444 70.372 117.436C70.383 117.432 70.3924 117.427 70.4018 117.422C70.4175 117.414 70.4332 117.406 70.4473 117.4C70.4552 117.395 70.463 117.392 70.4693 117.389C70.4834 117.383 70.496 117.375 70.5085 117.369C70.5148 117.366 70.5195 117.362 70.5258 117.359C70.5368 117.353 70.5478 117.348 70.5572 117.344C70.5619 117.34 70.565 117.339 70.5697 117.337C70.576 117.334 70.5839 117.33 70.5886 117.326C70.5901 117.325 70.5917 117.325 70.5933 117.323C70.6702 117.276 70.744 117.226 70.8146 117.176C70.8381 117.158 70.8601 117.143 70.8821 117.125C70.9307 117.089 70.9778 117.053 71.0217 117.017C71.0343 117.008 71.0469 116.998 71.0578 116.989C71.0704 116.98 71.0798 116.969 71.0908 116.959C71.1347 116.921 71.1787 116.882 71.2195 116.845C71.2383 116.827 71.2572 116.81 71.2744 116.793C71.3325 116.736 71.3874 116.68 71.4408 116.623C71.4424 116.623 71.4424 116.622 71.4424 116.622C71.4455 116.619 71.4486 116.614 71.4518 116.611C71.502 116.556 71.5491 116.501 71.5946 116.446C71.6103 116.427 71.6244 116.408 71.6385 116.391C71.6731 116.347 71.7045 116.305 71.7358 116.261C71.7437 116.25 71.7531 116.24 71.7594 116.229C71.7735 116.209 71.7876 116.19 71.8002 116.17C71.8316 116.123 71.8614 116.074 71.8912 116.025C71.9038 116.003 71.9163 115.98 71.9289 115.956C71.943 115.931 71.9571 115.906 71.9697 115.881C71.9697 115.879 71.9713 115.878 71.9713 115.878C72.0042 115.813 72.0356 115.748 72.0654 115.682C72.0733 115.663 72.0811 115.645 72.0905 115.627C72.1156 115.569 72.1408 115.511 72.1659 115.451C72.1941 115.383 72.2239 115.316 72.2538 115.248C72.26 115.236 72.2663 115.223 72.271 115.211C72.2946 115.157 72.3197 115.106 72.3464 115.054C72.3573 115.032 72.3683 115.011 72.3793 114.989C72.395 114.958 72.4123 114.928 72.4295 114.897C72.4421 114.873 72.4562 114.85 72.4703 114.828C72.4892 114.796 72.5096 114.767 72.53 114.735C72.5457 114.712 72.5614 114.688 72.5771 114.665C72.588 114.65 72.599 114.635 72.61 114.621C72.6336 114.591 72.6571 114.559 72.6822 114.53C72.6948 114.514 72.7073 114.5 72.7215 114.484C72.7544 114.446 72.7889 114.41 72.8266 114.374C72.8313 114.37 72.836 114.365 72.8423 114.359C72.8847 114.318 72.9302 114.279 72.9773 114.239C72.9961 114.224 73.0165 114.209 73.0369 114.194C73.0714 114.167 73.106 114.142 73.1436 114.117C73.1672 114.101 73.1907 114.085 73.2143 114.07C73.2551 114.043 73.2974 114.018 73.3429 113.993C73.3618 113.982 73.3822 113.971 73.401 113.96C73.4685 113.924 73.5376 113.889 73.6145 113.855C73.7086 113.816 73.8075 113.779 73.908 113.746C73.9315 113.739 73.955 113.731 73.977 113.723C74.0884 113.693 74.192 113.665 74.2972 113.638Z" fill="#044149"/>
<path d="M130.733 113.208L130.646 103.377L113.138 110.744L113.208 118.925C113.202 118.925 113.197 118.927 113.191 118.927C113.153 118.932 113.116 118.936 113.078 118.94C112.938 118.955 112.799 118.969 112.662 118.98C112.648 118.982 112.634 118.982 112.621 118.983C112.521 118.991 112.42 118.999 112.32 119.004C112.282 119.005 112.246 119.007 112.207 119.009C112.132 119.012 112.056 119.016 111.983 119.018C111.954 119.02 111.928 119.02 111.901 119.02C111.725 119.024 111.551 119.026 111.382 119.023C111.358 119.023 111.336 119.021 111.314 119.021C111.173 119.018 111.033 119.012 110.897 119.004C110.886 119.004 110.875 119.002 110.865 119.002C110.736 118.994 110.612 118.982 110.49 118.969C110.459 118.966 110.429 118.963 110.399 118.958C110.294 118.946 110.192 118.932 110.091 118.916C110.079 118.914 110.066 118.913 110.055 118.91C109.947 118.891 109.84 118.87 109.738 118.849C109.712 118.842 109.685 118.836 109.66 118.831C109.563 118.809 109.468 118.784 109.377 118.759C109.365 118.756 109.351 118.751 109.338 118.748C109.319 118.742 109.3 118.736 109.282 118.731C109.231 118.715 109.181 118.699 109.133 118.682C109.107 118.673 109.084 118.663 109.059 118.655C109.018 118.64 108.977 118.624 108.936 118.608C108.913 118.599 108.891 118.59 108.869 118.58C108.83 118.563 108.79 118.546 108.753 118.528C108.731 118.517 108.71 118.508 108.688 118.497C108.649 118.478 108.611 118.458 108.575 118.437C108.558 118.428 108.539 118.418 108.524 118.409C108.47 118.378 108.418 118.346 108.371 118.313C107.714 117.869 107.615 117.301 107.598 116.711C107.596 116.551 107.594 116.392 107.594 116.232C107.59 115.747 107.557 115.265 107.235 114.845C107.168 114.755 106.464 114.157 105.868 113.806L88.3813 121.165L88.4677 130.996L105.954 123.637C106.551 123.988 107.254 124.586 107.321 124.676C107.609 125.054 107.665 125.481 107.678 125.916C107.679 126.074 107.679 126.233 107.681 126.393C107.687 127.036 107.744 127.664 108.456 128.146C108.505 128.179 108.557 128.21 108.608 128.242C108.626 128.251 108.644 128.26 108.662 128.271C108.698 128.292 108.735 128.312 108.773 128.331C108.795 128.342 108.817 128.351 108.837 128.362C108.875 128.38 108.914 128.397 108.954 128.414C108.976 128.424 108.998 128.433 109.021 128.443C109.034 128.447 109.046 128.453 109.059 128.458C109.087 128.469 109.117 128.48 109.145 128.49C109.17 128.499 109.194 128.508 109.219 128.516C109.266 128.534 109.315 128.548 109.363 128.563C109.384 128.57 109.404 128.576 109.424 128.582C109.428 128.584 109.431 128.584 109.434 128.585C109.442 128.588 109.451 128.59 109.461 128.592C109.553 128.618 109.65 128.643 109.748 128.665C109.762 128.669 109.774 128.673 109.789 128.676C109.8 128.68 109.812 128.681 109.823 128.683C109.928 128.705 110.033 128.727 110.143 128.745C110.145 128.745 110.146 128.747 110.146 128.747C110.156 128.749 110.165 128.75 110.173 128.75C110.275 128.767 110.382 128.782 110.489 128.794C110.504 128.796 110.518 128.799 110.534 128.8C110.548 128.802 110.562 128.802 110.576 128.803C110.699 128.818 110.824 128.829 110.953 128.838L110.961 128.84C110.969 128.84 110.978 128.84 110.986 128.841C111.123 128.851 111.262 128.855 111.405 128.858C111.419 128.858 111.433 128.86 111.447 128.86C111.455 128.86 111.462 128.86 111.469 128.86C111.639 128.863 111.812 128.862 111.989 128.857C112.003 128.857 112.017 128.857 112.031 128.857C112.045 128.857 112.06 128.855 112.075 128.855C112.149 128.854 112.223 128.849 112.298 128.846C112.336 128.844 112.372 128.843 112.41 128.841C112.516 128.835 112.623 128.827 112.731 128.819C112.738 128.819 112.742 128.818 112.749 128.818H112.75C112.888 128.807 113.029 128.793 113.171 128.777C113.208 128.772 113.244 128.769 113.281 128.764C113.405 128.75 113.529 128.733 113.654 128.716C113.67 128.714 113.684 128.712 113.7 128.709C113.704 128.709 113.711 128.708 113.715 128.706C113.831 128.689 113.948 128.672 114.065 128.651C114.086 128.648 114.105 128.643 114.125 128.64C114.224 128.623 114.321 128.606 114.418 128.587C114.462 128.579 114.506 128.57 114.55 128.56C114.626 128.546 114.699 128.53 114.775 128.515C114.823 128.504 114.874 128.493 114.922 128.482C114.993 128.466 115.062 128.45 115.132 128.433C115.151 128.428 115.17 128.425 115.187 128.421C115.203 128.417 115.219 128.411 115.236 128.408C115.426 128.362 115.616 128.312 115.804 128.26C115.829 128.254 115.854 128.246 115.88 128.238C116.073 128.184 116.264 128.125 116.456 128.064C116.476 128.058 116.495 128.052 116.514 128.045C116.71 127.981 116.906 127.914 117.099 127.841C117.11 127.837 117.123 127.832 117.134 127.827C117.336 127.752 117.535 127.673 117.733 127.59C117.83 127.55 117.925 127.509 118.019 127.466C118.152 127.407 118.281 127.347 118.406 127.286C118.449 127.265 118.491 127.243 118.533 127.223C118.615 127.182 118.697 127.141 118.775 127.101C118.822 127.076 118.868 127.052 118.913 127.027C118.985 126.988 119.058 126.948 119.127 126.908C119.171 126.882 119.215 126.857 119.257 126.832C119.284 126.817 119.31 126.802 119.337 126.787C119.381 126.76 119.422 126.733 119.466 126.707C119.503 126.683 119.541 126.66 119.579 126.636C119.656 126.586 119.731 126.536 119.805 126.485C119.828 126.47 119.853 126.452 119.877 126.437C119.973 126.371 120.064 126.303 120.152 126.236C120.175 126.219 120.196 126.201 120.217 126.184C120.269 126.143 120.321 126.102 120.37 126.062C120.379 126.054 120.389 126.046 120.398 126.038C120.462 125.985 120.522 125.93 120.582 125.876C120.608 125.853 120.637 125.828 120.662 125.804C120.743 125.726 120.822 125.647 120.894 125.569L120.895 125.567C120.958 125.498 121.016 125.429 121.073 125.362C121.09 125.34 121.106 125.318 121.123 125.296C121.153 125.258 121.183 125.22 121.209 125.183C121.217 125.172 121.222 125.162 121.23 125.153C121.244 125.134 121.255 125.115 121.267 125.095C121.299 125.046 121.329 124.999 121.355 124.951C121.366 124.93 121.379 124.91 121.388 124.891C121.395 124.88 121.402 124.867 121.407 124.856C121.434 124.806 121.456 124.756 121.478 124.706C121.481 124.696 121.484 124.688 121.489 124.681C121.503 124.646 121.517 124.61 121.53 124.575C121.537 124.553 121.544 124.531 121.55 124.509C121.553 124.499 121.558 124.486 121.561 124.475C121.575 124.425 121.588 124.375 121.595 124.324C121.597 124.315 121.597 124.304 121.599 124.293C121.6 124.282 121.602 124.273 121.603 124.262C121.611 124.205 121.616 124.149 121.616 124.094C121.616 124.087 121.616 124.083 121.616 124.076C121.595 121.744 121.575 119.41 121.555 117.078L130.733 113.208Z" fill="#0F5862"/>
<path d="M55.3996 98.9121L97.671 81.124L130.647 103.377L113.138 110.744C113.524 111.071 114.183 111.452 114.318 111.513C114.932 111.794 115.716 112.001 116.478 112.142C117.95 112.414 119.759 112.37 120.808 113.078C122.448 114.186 121.156 116.195 117.928 117.634C117.834 117.675 117.739 117.717 117.642 117.758C114.205 119.203 110.051 119.453 108.364 118.314C106.993 117.388 108.047 115.92 107.227 114.843C107.16 114.754 106.457 114.156 105.86 113.805L88.3736 121.164L74.7288 111.957C74.7853 111.931 74.8434 111.904 74.9046 111.877C75.5795 111.576 76.5463 111.254 76.7001 111.22C78.7356 110.772 81.4869 111.315 83.2446 110.576C85.3979 109.617 84.9585 107.442 82.3093 105.653C79.6286 103.843 75.7019 103.115 73.5376 104.025C72.1958 104.623 72.2476 105.565 71.7265 106.337C71.4534 106.744 71.0516 107.163 70.518 107.492C70.4537 107.531 70.2104 107.654 69.9012 107.792C69.6423 107.907 69.3378 108.032 69.0553 108.128L55.3996 98.9121Z" fill="#106570"/>
<path d="M337.913 95.7798L317.572 87.2201C316.881 87.6281 316.062 88.325 315.983 88.427C315.032 89.6778 316.258 91.3869 314.664 92.4636C312.699 93.7882 307.868 93.4994 303.871 91.817C303.758 91.7699 303.648 91.7212 303.539 91.6726C299.785 89.998 298.28 87.6595 300.189 86.3726C301.408 85.5486 303.513 85.602 305.225 85.2865C306.113 85.1233 307.025 84.88 307.738 84.5536C307.895 84.483 308.662 84.0388 309.109 83.659L288.744 75.0898L272.858 85.8107C272.53 85.6993 272.176 85.5533 271.876 85.4199C271.516 85.2598 271.234 85.117 271.16 85.0715C270.537 84.687 270.069 84.2005 269.751 83.7281C269.147 82.8288 269.206 81.7333 267.722 81.0726C265.129 79.9802 260.562 80.8277 257.443 82.9308C254.361 85.0119 253.849 87.5418 256.273 88.6216C258.401 89.5177 261.599 88.8868 263.966 89.4063C264.145 89.4455 265.269 89.8206 266.053 90.1706C266.124 90.202 266.193 90.235 266.257 90.2648L250.389 100.972L299.558 121.661L337.913 95.7798Z" fill="#0D8361"/>
<path d="M299.059 76.1429C299.062 75.6674 299.31 75.2358 299.826 74.8874C299.908 74.8325 299.996 74.7822 300.085 74.7352C300.113 74.721 300.143 74.7069 300.173 74.6928C300.237 74.6614 300.303 74.6316 300.372 74.6033C300.39 74.597 300.405 74.5876 300.423 74.5814C300.437 74.5751 300.454 74.5719 300.47 74.5657C300.578 74.5249 300.689 74.4856 300.806 74.4527C300.807 74.4527 300.809 74.4511 300.812 74.4511H300.813C300.931 74.4166 301.052 74.3867 301.174 74.3585C301.188 74.3554 301.203 74.3506 301.217 74.3475C301.234 74.3428 301.254 74.3412 301.272 74.3365C301.416 74.3051 301.562 74.2769 301.711 74.2518C301.716 74.2518 301.721 74.2502 301.725 74.2486C301.741 74.2455 301.757 74.2439 301.774 74.2424C301.921 74.2188 302.072 74.1968 302.224 74.1764C302.245 74.1733 302.265 74.1702 302.285 74.1686C302.449 74.1482 302.615 74.1278 302.78 74.109C302.789 74.1074 302.799 74.1074 302.808 74.1058C302.846 74.1011 302.882 74.098 302.92 74.0933C303.031 74.0807 303.142 74.0681 303.254 74.0556C303.409 74.0383 303.565 74.0195 303.718 73.9991C303.75 73.996 303.781 73.9912 303.811 73.9865C303.965 73.9661 304.115 73.9442 304.265 73.9206C304.345 73.9081 304.423 73.8955 304.502 73.8798C304.662 73.85 304.823 73.817 304.983 73.7825C305.013 73.7762 305.043 73.77 305.073 73.7637C305.187 73.737 305.304 73.7103 305.417 73.6821C305.42 73.6805 305.424 73.6805 305.428 73.6789C305.544 73.6491 305.658 73.6177 305.771 73.5848C305.807 73.5753 305.842 73.5644 305.876 73.5534C305.955 73.5298 306.033 73.5047 306.11 73.4796C306.148 73.4671 306.187 73.4545 306.225 73.4404C306.302 73.4137 306.377 73.387 306.452 73.3588C306.484 73.3462 306.515 73.3352 306.547 73.3227C306.645 73.2834 306.741 73.2426 306.834 73.2018C306.98 73.1359 307.691 72.7247 308.108 72.3716L308.016 82.9873C307.6 83.3388 306.887 83.7516 306.741 83.8175C306.649 83.8599 306.551 83.9007 306.452 83.9399C306.445 83.9431 306.438 83.9462 306.43 83.9494C306.41 83.9572 306.386 83.965 306.366 83.9729C306.289 84.0027 306.211 84.031 306.131 84.0576C306.095 84.0702 306.057 84.0828 306.019 84.0953C305.942 84.1204 305.865 84.1455 305.785 84.1691C305.762 84.1769 305.738 84.1848 305.713 84.191C305.701 84.1942 305.688 84.1973 305.677 84.2005C305.564 84.2334 305.451 84.2648 305.336 84.2946C305.332 84.2962 305.327 84.2962 305.321 84.2978C305.208 84.326 305.095 84.3543 304.98 84.3794C304.968 84.3825 304.955 84.3857 304.943 84.3888C304.924 84.3935 304.905 84.3966 304.886 84.3998C304.726 84.4343 304.566 84.4673 304.406 84.4971C304.34 84.5096 304.274 84.5206 304.208 84.5316C304.194 84.5348 304.18 84.5363 304.166 84.5379C304.018 84.5614 303.869 84.5834 303.717 84.6038C303.684 84.6085 303.649 84.6117 303.615 84.6164C303.466 84.6352 303.317 84.654 303.166 84.6713C303.161 84.6713 303.157 84.6729 303.152 84.6729C303.047 84.6854 302.94 84.6964 302.833 84.709C302.78 84.7152 302.727 84.7215 302.673 84.7278C302.51 84.7466 302.347 84.7655 302.183 84.7859C302.165 84.789 302.144 84.7921 302.125 84.7937C301.973 84.8141 301.821 84.8361 301.672 84.8596C301.651 84.8628 301.631 84.8659 301.611 84.869C301.46 84.8942 301.314 84.9224 301.17 84.9538C301.138 84.9601 301.107 84.9679 301.075 84.9742C300.951 85.0025 300.829 85.0323 300.711 85.0668C300.71 85.0668 300.71 85.0668 300.708 85.0684C300.591 85.1029 300.479 85.1421 300.369 85.1829C300.336 85.1955 300.305 85.208 300.273 85.2206C300.204 85.2489 300.139 85.2787 300.074 85.3101C300.046 85.3242 300.016 85.3383 299.988 85.3524C299.898 85.3995 299.81 85.4497 299.729 85.5047C299.213 85.8531 298.966 86.2847 298.961 86.7602L299.059 76.1429Z" fill="#119D75"/>
<path d="M257.6 86.1481C257.596 86.1277 257.592 86.1073 257.588 86.0869C257.585 86.0681 257.58 86.0508 257.577 86.032C257.575 86.0257 257.575 86.0194 257.574 86.0132C257.569 85.9849 257.566 85.9567 257.563 85.93C257.559 85.908 257.558 85.8876 257.556 85.8672C257.555 85.8374 257.553 85.8091 257.553 85.7793C257.553 85.7621 257.552 85.7448 257.552 85.7275C257.552 85.7197 257.552 85.7134 257.552 85.7056L257.644 75.0898C257.644 75.1134 257.646 75.1385 257.646 75.162C257.647 75.1919 257.647 75.2217 257.649 75.2499C257.651 75.2719 257.654 75.2923 257.655 75.3127C257.658 75.341 257.661 75.3692 257.666 75.3959C257.671 75.421 257.676 75.4445 257.68 75.4697C257.683 75.4901 257.688 75.5105 257.693 75.5309C257.699 75.556 257.707 75.5811 257.713 75.6062C257.72 75.625 257.724 75.6454 257.731 75.6643C257.734 75.6737 257.738 75.6847 257.742 75.6941C257.767 75.7678 257.796 75.8385 257.831 75.9091C257.833 75.9107 257.833 75.9122 257.833 75.9138C257.867 75.9797 257.906 76.0441 257.95 76.1084C257.957 76.1194 257.964 76.1288 257.971 76.1398C258.015 76.201 258.063 76.2607 258.115 76.3187C258.129 76.3344 258.143 76.3501 258.159 76.3658C258.175 76.3831 258.192 76.4003 258.209 76.4176C258.23 76.4364 258.248 76.4553 258.27 76.4741C258.289 76.4914 258.308 76.5071 258.325 76.5243C258.343 76.54 258.361 76.5541 258.38 76.5683C258.413 76.5949 258.448 76.6201 258.482 76.6452C258.501 76.6577 258.518 76.6718 258.537 76.6844C258.576 76.7111 258.617 76.7378 258.66 76.7629C258.675 76.7723 258.691 76.7833 258.707 76.7927C258.744 76.8147 258.784 76.8366 258.823 76.857C258.84 76.8665 258.857 76.8759 258.876 76.8853C258.934 76.9151 258.996 76.9449 259.058 76.9732C259.179 77.025 259.305 77.0689 259.432 77.1097C259.474 77.1238 259.52 77.1333 259.564 77.1458C259.652 77.1709 259.738 77.1976 259.829 77.218C259.852 77.2243 259.878 77.2274 259.901 77.2337C260.003 77.2572 260.107 77.2776 260.21 77.2965C260.253 77.3043 260.295 77.3106 260.337 77.3169C260.435 77.3326 260.534 77.3467 260.634 77.3593C260.667 77.364 260.698 77.3687 260.733 77.3718C260.862 77.3859 260.993 77.4001 261.127 77.4095C261.21 77.4158 261.295 77.4205 261.378 77.4252C261.449 77.4299 261.519 77.4346 261.59 77.4377C261.676 77.4424 261.762 77.444 261.849 77.4471C261.918 77.4487 261.987 77.4534 262.057 77.455C262.222 77.4597 262.39 77.4628 262.557 77.4644H262.571C262.767 77.4675 262.965 77.4691 263.161 77.4707C263.286 77.4723 263.412 77.4738 263.537 77.4754C263.6 77.477 263.661 77.477 263.723 77.4785C263.829 77.4801 263.936 77.4817 264.041 77.4848C264.068 77.4848 264.096 77.4864 264.123 77.4864C264.17 77.4879 264.215 77.4895 264.261 77.4911C264.343 77.4942 264.423 77.4974 264.504 77.5005C264.58 77.5036 264.655 77.5084 264.729 77.5131C264.807 77.5178 264.884 77.5225 264.961 77.5288C264.988 77.5303 265.014 77.5319 265.039 77.5335V77.535V77.5335C265.126 77.5397 265.212 77.5492 265.297 77.5586C265.314 77.5601 265.331 77.5617 265.349 77.5633C265.46 77.5758 265.571 77.5884 265.68 77.6057C265.692 77.6072 265.705 77.6104 265.717 77.6119C265.881 77.637 266.041 77.6637 266.196 77.6983C266.201 77.6998 266.204 77.6998 266.21 77.7014C266.213 77.703 266.221 77.7045 266.226 77.7061C266.232 77.7077 266.24 77.7092 266.248 77.7124C266.257 77.7155 266.27 77.7187 266.281 77.7218C266.289 77.7249 266.298 77.7265 266.308 77.7296C266.322 77.7344 266.336 77.7391 266.351 77.7438C266.362 77.7469 266.373 77.75 266.384 77.7548C266.402 77.7595 266.421 77.7657 266.441 77.772C266.454 77.7752 266.464 77.7799 266.475 77.783C266.497 77.7893 266.519 77.7971 266.543 77.805C266.556 77.8097 266.57 77.8128 266.582 77.8175C266.606 77.8254 266.631 77.8332 266.656 77.8426C266.67 77.8474 266.684 77.8521 266.7 77.8568C266.727 77.8662 266.753 77.8756 266.782 77.885C266.797 77.8897 266.811 77.896 266.829 77.9007C266.855 77.9101 266.884 77.9195 266.912 77.9305C266.929 77.9368 266.948 77.9431 266.965 77.9494C266.99 77.9588 267.017 77.9682 267.044 77.9776C267.066 77.9855 267.086 77.9933 267.108 78.0012C267.133 78.0106 267.16 78.02 267.185 78.0294C267.208 78.0373 267.23 78.0467 267.254 78.0545C267.281 78.0639 267.306 78.0749 267.332 78.0843C267.356 78.0938 267.378 78.1016 267.401 78.111C267.428 78.122 267.455 78.1314 267.481 78.1424C267.505 78.1518 267.529 78.1612 267.552 78.1691C267.579 78.1801 267.605 78.1895 267.631 78.2005C267.654 78.2099 267.678 78.2193 267.701 78.2287C267.728 78.2397 267.753 78.2507 267.78 78.2601C267.803 78.2695 267.827 78.279 267.849 78.2884C267.877 78.2994 267.905 78.3119 267.932 78.3229C267.952 78.3307 267.973 78.3402 267.992 78.348C268.039 78.3684 268.084 78.3888 268.13 78.4076C268.196 78.4375 268.258 78.4673 268.32 78.4955L268.227 89.1112C268.167 89.083 268.103 89.0532 268.037 89.0234C267.992 89.0029 267.946 88.9825 267.899 88.9621C267.883 88.9559 267.868 88.9496 267.853 88.9433C267.82 88.9292 267.789 88.9166 267.756 88.9025C267.737 88.8947 267.718 88.8868 267.7 88.879C267.67 88.8664 267.64 88.8539 267.609 88.8413C267.587 88.8334 267.566 88.824 267.546 88.8162C267.518 88.8052 267.488 88.7926 267.46 88.7817C267.438 88.7738 267.416 88.7644 267.394 88.7565C267.365 88.7456 267.337 88.7346 267.309 88.7236C267.285 88.7142 267.263 88.7063 267.24 88.6969C267.213 88.6875 267.186 88.6765 267.16 88.6671C267.138 88.6592 267.116 88.6498 267.092 88.642C267.066 88.6326 267.039 88.6216 267.012 88.6122C266.99 88.6043 266.97 88.5965 266.949 88.5886C266.923 88.5792 266.898 88.5698 266.873 88.5604C266.849 88.5525 266.825 88.5447 266.803 88.5368C266.782 88.529 266.76 88.5211 266.739 88.5149C266.716 88.507 266.694 88.4992 266.672 88.4913C266.651 88.4835 266.629 88.4772 266.61 88.4693C266.59 88.4631 266.57 88.4552 266.551 88.4489C266.532 88.4427 266.512 88.4348 266.493 88.4301C266.474 88.4238 266.457 88.4175 266.439 88.4128C266.421 88.4066 266.403 88.4003 266.386 88.3956C266.369 88.3909 266.355 88.3846 266.339 88.3799C266.323 88.3752 266.308 88.3705 266.293 88.3658C266.279 88.361 266.265 88.3563 266.251 88.3532C266.238 88.3485 266.226 88.3454 266.213 88.3422C266.202 88.3391 266.191 88.3359 266.18 88.3328C266.169 88.3297 266.158 88.3265 266.149 88.3234C266.141 88.3202 266.133 88.3187 266.127 88.3171C266.116 88.314 266.105 88.3124 266.097 88.3093C265.94 88.2747 265.782 88.2465 265.617 88.2229C265.496 88.2041 265.374 88.1884 265.251 88.1743C265.231 88.1727 265.209 88.1711 265.189 88.168C265.08 88.157 264.97 88.1476 264.859 88.1398C264.782 88.1335 264.705 88.1288 264.628 88.1256C264.553 88.1209 264.478 88.1162 264.401 88.1131C264.322 88.1099 264.242 88.1068 264.162 88.1037C264.087 88.1005 264.011 88.0974 263.935 88.0958C263.833 88.0927 263.727 88.0911 263.624 88.0895C263.559 88.088 263.495 88.0864 263.429 88.0864C263.305 88.0848 263.181 88.0833 263.057 88.0833C262.894 88.0817 262.732 88.0801 262.569 88.077C262.528 88.077 262.488 88.0754 262.447 88.0754C262.282 88.0738 262.117 88.0707 261.954 88.066C261.946 88.066 261.938 88.066 261.93 88.066C261.861 88.0644 261.794 88.0597 261.726 88.0581C261.645 88.055 261.563 88.0534 261.483 88.0487C261.409 88.0456 261.337 88.0393 261.263 88.0346C261.182 88.0299 261.1 88.0252 261.022 88.0189C261.012 88.0189 261.003 88.0173 260.995 88.0173C260.869 88.0079 260.747 87.9954 260.625 87.9812C260.593 87.9781 260.563 87.9734 260.532 87.9703C260.471 87.9624 260.408 87.9561 260.348 87.9467V87.9436V87.9467C260.309 87.9404 260.27 87.9342 260.231 87.9279C260.188 87.9216 260.147 87.9138 260.107 87.9075C260.002 87.8886 259.898 87.8682 259.797 87.8447C259.774 87.8384 259.749 87.8353 259.724 87.829C259.717 87.8274 259.71 87.8259 259.703 87.8243C259.619 87.8039 259.537 87.7788 259.455 87.7552C259.413 87.7427 259.369 87.7333 259.327 87.7191C259.198 87.6783 259.072 87.6328 258.952 87.581C258.889 87.5528 258.829 87.5245 258.77 87.4947C258.749 87.4837 258.729 87.4727 258.71 87.4618C258.672 87.4414 258.636 87.4225 258.602 87.4005C258.597 87.3974 258.592 87.3958 258.587 87.3927C258.573 87.3849 258.562 87.3754 258.548 87.3676C258.509 87.3425 258.47 87.3174 258.431 87.2907C258.412 87.2781 258.393 87.264 258.374 87.2499C258.339 87.2248 258.307 87.1997 258.275 87.173C258.264 87.1651 258.253 87.1573 258.242 87.1479V87.1463V87.1479C258.234 87.1416 258.226 87.1337 258.219 87.1275C258.2 87.1118 258.183 87.0961 258.164 87.0788C258.142 87.06 258.121 87.0411 258.101 87.0207C258.084 87.0035 258.068 86.9878 258.052 86.9705C258.043 86.9595 258.03 86.9485 258.021 86.9376C258.016 86.9329 258.013 86.9266 258.008 86.9219C257.957 86.8638 257.908 86.8042 257.864 86.743C257.861 86.7398 257.858 86.7351 257.855 86.732C257.85 86.7257 257.847 86.7194 257.844 86.7131C257.8 86.6504 257.76 86.586 257.726 86.5185C257.726 86.5185 257.724 86.5185 257.724 86.517C257.723 86.5154 257.723 86.5138 257.723 86.5122C257.688 86.4432 257.658 86.3726 257.633 86.3019C257.632 86.2957 257.629 86.2894 257.625 86.2831V86.28V86.2831C257.624 86.2784 257.622 86.2737 257.621 86.269C257.614 86.2501 257.61 86.2313 257.605 86.2125C257.614 86.1984 257.607 86.1732 257.6 86.1481Z" fill="#119D75"/>
<path d="M253.6 88.4395L253.507 99.0536L299.148 118.26L299.241 107.645L253.6 88.4395Z" fill="#119D75"/>
<path d="M299.241 107.645L299.148 118.26L334.753 94.2353L334.845 83.6196L299.241 107.645Z" fill="#17A77E"/>
<path d="M334.845 83.6199L315.963 75.6738C315.321 76.0521 314.563 76.6987 314.489 76.7944C313.606 77.9558 314.745 79.5425 313.265 80.5407C311.442 81.7711 306.958 81.5012 303.247 79.9411C303.142 79.8972 303.04 79.8533 302.94 79.8077C299.454 78.254 298.059 76.0835 299.829 74.8875C300.962 74.1232 302.915 74.1719 304.503 73.8784C305.327 73.7262 306.174 73.5017 306.835 73.1988C306.981 73.1329 307.692 72.7217 308.11 72.3686L289.206 64.4131L274.459 74.3649C274.155 74.2613 273.825 74.1264 273.547 74.0024C273.215 73.8533 272.951 73.7214 272.883 73.6791C272.304 73.3228 271.871 72.8708 271.576 72.4314C271.014 71.5964 271.071 70.581 269.693 69.9658C267.285 68.9519 263.046 69.7382 260.152 71.6906C257.29 73.6226 256.817 75.9705 259.065 76.9733C261.039 77.8051 264.01 77.2182 266.206 77.7016C266.372 77.7377 267.416 78.0861 268.144 78.4109C268.21 78.4408 268.272 78.4706 268.334 78.4988L253.603 88.4381L299.244 107.643L334.845 83.6199Z" fill="#23B88D"/>
<path d="M11.6177 204.044H23.6136" stroke="#0D8361" stroke-width="10.4464" stroke-miterlimit="10"/>
<path d="M25.4003 204.044H31.3998" stroke="#0D8361" stroke-width="10.4464" stroke-miterlimit="10"/>
<path d="M287.44 171.831H301.413" stroke="#0D8361" stroke-width="11.275" stroke-miterlimit="10"/>
<path d="M303.496 171.831H310.483" stroke="#0D8361" stroke-width="11.275" stroke-miterlimit="10"/>
<path d="M331.838 262.489H317.864" stroke="#0D8361" stroke-width="11.275" stroke-miterlimit="10"/>
<path d="M315.781 262.489H308.794" stroke="#0D8361" stroke-width="11.275" stroke-miterlimit="10"/>
<path d="M384.39 48.0361H372.394" stroke="#0D8361" stroke-width="10.4464" stroke-miterlimit="10"/>
<path d="M370.607 48.0361H364.609" stroke="#0D8361" stroke-width="10.4464" stroke-miterlimit="10"/>
<path d="M118.54 266.013H106.544" stroke="#0D8361" stroke-width="10.4464" stroke-miterlimit="10"/>
<path d="M104.756 266.013H98.7596" stroke="#0D8361" stroke-width="10.4464" stroke-miterlimit="10"/>
<path d="M193.91 3.76758L195.583 5.44091" stroke="#0D8361" stroke-width="10.4464" stroke-miterlimit="10"/>
<path d="M196.762 6.62061L198.435 8.29239" stroke="#0D8361" stroke-width="10.4464" stroke-miterlimit="10"/>
<path d="M198.435 3.76758L196.762 5.44091" stroke="#0D8361" stroke-width="10.4464" stroke-miterlimit="10"/>
<path d="M195.583 6.62061L193.91 8.29239" stroke="#0D8361" stroke-width="10.4464" stroke-miterlimit="10"/>
<path d="M4 98.6777L5.67178 100.351" stroke="#0D8361" stroke-width="10.4464" stroke-miterlimit="10"/>
<path d="M6.8515 101.531L8.52484 103.203" stroke="#0D8361" stroke-width="10.4464" stroke-miterlimit="10"/>
<path d="M8.52484 98.6777L6.8515 100.351" stroke="#0D8361" stroke-width="10.4464" stroke-miterlimit="10"/>
<path d="M5.67178 101.531L4 103.203" stroke="#0D8361" stroke-width="10.4464" stroke-miterlimit="10"/>
<path d="M232.571 84.7832L234.242 86.455" stroke="#0D8361" stroke-width="10.4464" stroke-miterlimit="10"/>
<path d="M235.422 87.6348L237.094 89.3081" stroke="#0D8361" stroke-width="10.4464" stroke-miterlimit="10"/>
<path d="M237.094 84.7832L235.422 86.455" stroke="#0D8361" stroke-width="10.4464" stroke-miterlimit="10"/>
<path d="M234.242 87.6348L232.571 89.3081" stroke="#0D8361" stroke-width="10.4464" stroke-miterlimit="10"/>
<path d="M379.865 159.476L381.537 161.148" stroke="#0D8361" stroke-width="10.4464" stroke-miterlimit="10"/>
<path d="M382.716 162.328L384.39 164" stroke="#0D8361" stroke-width="10.4464" stroke-miterlimit="10"/>
<path d="M384.39 159.476L382.716 161.148" stroke="#0D8361" stroke-width="10.4464" stroke-miterlimit="10"/>
<path d="M381.537 162.328L379.865 164" stroke="#0D8361" stroke-width="10.4464" stroke-miterlimit="10"/>
<path d="M189.387 237.736L191.059 239.41" stroke="#0D8361" stroke-width="10.4464" stroke-miterlimit="10"/>
<path d="M192.238 240.589L193.91 242.261" stroke="#0D8361" stroke-width="10.4464" stroke-miterlimit="10"/>
<path d="M193.91 237.736L192.238 239.41" stroke="#0D8361" stroke-width="10.4464" stroke-miterlimit="10"/>
<path d="M191.059 240.589L189.387 242.261" stroke="#0D8361" stroke-width="10.4464" stroke-miterlimit="10"/>
<path d="M138.238 62.1504L139.91 63.8237" stroke="#0D8361" stroke-width="10.4464" stroke-miterlimit="10"/>
<path d="M141.089 65.0034L142.761 66.6752" stroke="#0D8361" stroke-width="10.4464" stroke-miterlimit="10"/>
<path d="M142.761 62.1504L141.089 63.8237" stroke="#0D8361" stroke-width="10.4464" stroke-miterlimit="10"/>
<path d="M139.91 65.0034L138.238 66.6752" stroke="#0D8361" stroke-width="10.4464" stroke-miterlimit="10"/>
<path d="M303.215 16.4948C303.215 17.6419 302.287 18.5702 301.14 18.5702C299.993 18.5702 299.065 17.6404 299.065 16.4948C299.065 15.3477 299.994 14.4194 301.14 14.4194C302.287 14.4179 303.215 15.3477 303.215 16.4948Z" stroke="#0D8361" stroke-width="10.4464" stroke-miterlimit="10"/>
<path d="M51.771 27.8581C51.771 29.0052 50.8428 29.9335 49.6957 29.9335C48.5486 29.9335 47.6203 29.0037 47.6203 27.8581C47.6203 26.711 48.5501 25.7827 49.6957 25.7827C50.8428 25.7827 51.771 26.7125 51.771 27.8581Z" stroke="#0D8361" stroke-width="10.4464" stroke-miterlimit="10"/>
<path d="M88.4598 164C88.4598 165.147 87.5316 166.076 86.3845 166.076C85.2373 166.076 84.3091 165.147 84.3091 164C84.3091 162.853 85.2373 161.925 86.3845 161.925C87.53 161.925 88.4598 162.855 88.4598 164Z" stroke="#0D8361" stroke-width="10.4464" stroke-miterlimit="10"/>
<defs>
<linearGradient id="paint0_linear_6_5581" x1="264.092" y1="150.456" x2="264.092" y2="162.663" gradientUnits="userSpaceOnUse">
<stop stop-color="white"/>
<stop offset="1" stop-color="white" stop-opacity="0"/>
</linearGradient>
</defs>
</svg>
