<svg width="464" height="442" viewBox="0 0 464 442" fill="none" xmlns="http://www.w3.org/2000/svg">
<path d="M229.217 217.786V217.835C229.047 217.912 228.87 217.976 228.69 218.026C228.545 217.979 228.352 217.883 228.162 217.835C228.162 217.835 228.211 217.835 228.162 217.786C211.535 211.408 149.859 189.155 124.869 133.235C99.3879 76.3101 120.704 0.532715 120.704 0.532715C149.029 3.64996 197.558 26.7181 228.686 82.9261C229.556 84.5085 230.426 86.1392 231.297 87.7699C261.025 144.937 231.731 212.175 229.217 217.786Z" fill="#48A572"/>
<path d="M339.14 133.235C314.15 189.155 252.473 211.457 235.846 217.786C238.359 212.175 267.652 144.936 237.924 87.769C237.055 86.1383 236.185 84.5076 235.315 82.9252C266.49 26.7181 314.971 3.64996 343.296 0.532715C343.296 0.532715 364.613 76.3101 339.14 133.235Z" fill="#A4DCBE"/>
<path d="M463.997 86.3968V159.87C463.997 178.238 437.27 197.231 437.27 197.231C437.27 197.231 348.429 264.57 294.099 305.571C239.817 346.624 231.987 364.992 231.987 364.992V311.084C231.987 262.119 275.006 232.096 275.006 232.096L463.997 86.3968Z" fill="#48A572"/>
<path d="M7.78336e-05 86.3968V159.87C7.78336e-05 178.238 26.7279 197.231 26.7279 197.231C26.7279 197.231 115.57 264.57 169.898 305.571C224.18 346.624 232.011 364.992 232.011 364.992V311.084C232.011 262.119 188.991 232.096 188.991 232.096L7.78336e-05 86.3968Z" fill="#48A572"/>
<path d="M463.998 197.23V205.141C464.048 236.509 457.613 267.548 445.095 296.311L231.989 376.265L463.998 197.23Z" fill="#51BF7F"/>
<path d="M5.493e-05 197.23V205.141C-0.0508013 236.51 6.38485 267.55 18.9029 296.312L232.012 376.265L5.493e-05 197.23Z" fill="#51BF7F"/>
<path d="M434.71 323.376C414.395 359.231 384.931 389.055 349.324 409.807C313.717 430.559 273.242 441.495 232.028 441.5C190.814 441.505 150.336 430.579 114.724 409.835C79.1121 389.092 49.6409 359.274 29.3171 323.424V323.376L231.99 388.888L434.71 323.376Z" fill="#91614E"/>
</svg>
