<svg width="40" height="41" viewBox="0 0 40 41" fill="none" xmlns="http://www.w3.org/2000/svg">
<circle cx="20" cy="20.0371" r="20" fill="white"/>
<g clip-path="url(#clip0_1_5308)">
<path d="M30.162 13.6932C29.3986 14.0309 28.589 14.2526 27.76 14.3512C28.6338 13.8286 29.2877 13.0062 29.6 12.0372C28.78 12.5252 27.881 12.8672 26.944 13.0522C26.3146 12.3787 25.4804 11.9321 24.571 11.7817C23.6615 11.6314 22.7279 11.7856 21.9153 12.2206C21.1026 12.6556 20.4564 13.3468 20.0771 14.187C19.6978 15.0271 19.6067 15.9689 19.818 16.8662C18.1551 16.7828 16.5283 16.3507 15.0433 15.5978C13.5582 14.845 12.2481 13.7882 11.198 12.4962C10.8263 13.1346 10.631 13.8604 10.632 14.5992C10.632 16.0492 11.37 17.3302 12.492 18.0802C11.828 18.0593 11.1786 17.8799 10.598 17.5572V17.6092C10.5982 18.5749 10.9324 19.5108 11.5438 20.2582C12.1553 21.0057 13.0065 21.5186 13.953 21.7102C13.3366 21.8772 12.6903 21.9018 12.063 21.7822C12.3299 22.6134 12.85 23.3404 13.5506 23.8613C14.2512 24.3822 15.0971 24.671 15.97 24.6872C15.1025 25.3685 14.1092 25.8721 13.0469 26.1693C11.9846 26.4665 10.8741 26.5514 9.779 26.4192C11.6907 27.6486 13.9161 28.3013 16.189 28.2992C23.882 28.2992 28.089 21.9262 28.089 16.3992C28.089 16.2192 28.084 16.0372 28.076 15.8592C28.8949 15.2673 29.6016 14.5342 30.163 13.6942L30.162 13.6932Z" fill="#106570"/>
</g>
<defs>
<clipPath id="clip0_1_5308">
<rect width="24" height="24" fill="white" transform="translate(8 8.03711)"/>
</clipPath>
</defs>
</svg>
