<svg width="22" height="17" viewBox="0 0 22 17" fill="none" xmlns="http://www.w3.org/2000/svg">
<path d="M20.5147 0.112406L1.02704 7.03738C-0.303026 7.52903 -0.295137 8.21251 0.784603 8.51727L5.64488 9.9149L7.50453 15.1678C7.73061 15.7427 7.61917 15.9708 8.27446 15.9708C8.78018 15.9708 9.00452 15.7583 9.28618 15.5049C9.46529 15.3434 10.5287 14.3908 11.7162 13.3271L16.7718 16.7685C17.7021 17.2414 18.3738 16.9964 18.6054 15.9725L21.9241 1.5645C22.2638 0.309495 21.4047 -0.259768 20.5147 0.112406ZM6.40764 9.59379L17.3627 3.22602C17.9096 2.92045 18.4111 3.08474 17.9994 3.42144L8.61894 11.219L8.2537 14.808L6.40764 9.59379Z" fill="white"/>
</svg>
