<svg width="40" height="41" viewBox="0 0 40 41" fill="none" xmlns="http://www.w3.org/2000/svg">
<circle cx="20" cy="20.0371" r="20" fill="white"/>
<g clip-path="url(#clip0_1_5318)">
<path d="M20 30.0371C14.477 30.0371 10 25.5601 10 20.0371C10 14.5141 14.477 10.0371 20 10.0371C25.523 10.0371 30 14.5141 30 20.0371C30 25.5601 25.523 30.0371 20 30.0371ZM16.89 21.2071L16.903 21.2001L17.773 24.0701C17.885 24.3811 18.039 24.4371 18.226 24.4111C18.414 24.3861 18.513 24.2851 18.636 24.1671L19.824 23.0191L22.374 24.9071C22.84 25.1641 23.175 25.0311 23.291 24.4751L24.948 16.6531C25.131 15.9251 24.811 15.6331 24.246 15.8651L14.513 19.6251C13.849 19.8911 13.853 20.2631 14.393 20.4281L16.89 21.2081V21.2071Z" fill="#106570"/>
</g>
<defs>
<clipPath id="clip0_1_5318">
<rect width="24" height="24" fill="white" transform="translate(8 8.03711)"/>
</clipPath>
</defs>
</svg>
