<svg width="18" height="15" viewBox="0 0 18 15" fill="none" xmlns="http://www.w3.org/2000/svg">
<path d="M2.13445 3.05996C2.15682 2.82803 2.07256 2.59878 1.90756 2.44268L0.226891 0.31746V0H5.44538L9.47899 9.28571L13.0252 0H18V0.31746L16.563 1.76367C16.4391 1.86279 16.3777 2.0257 16.4034 2.18695V12.8131C16.3777 12.9743 16.4391 13.1372 16.563 13.2363L17.9664 14.6825V15H10.9076V14.6825L12.3613 13.2011C12.5042 13.0511 12.5042 13.0071 12.5042 12.7778V4.18871L8.46218 14.9647H7.91597L3.21008 4.18871V11.4109C3.17085 11.7146 3.26692 12.0203 3.47059 12.2399L5.36134 14.6473V14.9647H0V14.6473L1.89076 12.2399C2.09294 12.0199 2.18341 11.7122 2.13445 11.4109V3.05996Z" fill="white"/>
</svg>
