<svg width="40" height="41" viewBox="0 0 40 41" fill="none" xmlns="http://www.w3.org/2000/svg">
<circle cx="20" cy="20.0371" r="20" fill="white"/>
<g clip-path="url(#clip0_1_5313)">
<path d="M12 11.0371H28C28.2652 11.0371 28.5196 11.1425 28.7071 11.33C28.8946 11.5175 29 11.7719 29 12.0371V28.0371C29 28.3023 28.8946 28.5567 28.7071 28.7442C28.5196 28.9318 28.2652 29.0371 28 29.0371H12C11.7348 29.0371 11.4804 28.9318 11.2929 28.7442C11.1054 28.5567 11 28.3023 11 28.0371V12.0371C11 11.7719 11.1054 11.5175 11.2929 11.33C11.4804 11.1425 11.7348 11.0371 12 11.0371ZM25.3 23.9771C25.2 23.9271 25.15 23.7771 25.15 23.6761V16.0431C25.15 15.9431 25.2 15.7931 25.3 15.6921L26.255 14.5871V14.5371H22.84L20.28 21.0151L17.366 14.5371H13.852V14.5871L14.755 15.8431C14.956 16.0431 15.006 16.3451 15.006 16.5961V22.1191C15.056 22.4211 15.006 22.7721 14.856 23.0731L13.5 24.9311V24.9811H17.116V24.9311L15.76 23.1241C15.61 22.8221 15.559 22.5211 15.61 22.1701V17.1471C15.66 17.2471 15.71 17.2471 15.76 17.4481L19.174 25.0811H19.224L22.54 16.7971C22.49 17.0971 22.49 17.4491 22.49 17.7011V23.6261C22.49 23.7761 22.44 23.8761 22.34 23.9771L21.335 24.9311V24.9811H26.256V24.9311L25.302 23.9771H25.3Z" fill="#106570"/>
</g>
<defs>
<clipPath id="clip0_1_5313">
<rect width="24" height="24" fill="white" transform="translate(8 8.03711)"/>
</clipPath>
</defs>
</svg>
