<svg width="40" height="41" viewBox="0 0 40 41" fill="none" xmlns="http://www.w3.org/2000/svg">
<circle cx="20" cy="20.0371" r="20" fill="white"/>
<g clip-path="url(#clip0_1_5323)">
<path d="M14.94 13.0371C14.9397 13.5676 14.7288 14.0762 14.3535 14.4511C13.9782 14.8259 13.4694 15.0364 12.939 15.0361C12.4086 15.0359 11.9 14.8249 11.5251 14.4496C11.1502 14.0744 10.9397 13.5656 10.94 13.0351C10.9403 12.5047 11.1512 11.9961 11.5265 11.6212C11.9018 11.2463 12.4106 11.0359 12.941 11.0361C13.4714 11.0364 13.98 11.2474 14.3549 11.6226C14.7298 11.9979 14.9403 12.5067 14.94 13.0371V13.0371ZM15 16.5171H11V29.0371H15V16.5171ZM21.32 16.5171H17.34V29.0371H21.28V22.4671C21.28 18.8071 26.05 18.4671 26.05 22.4671V29.0371H30V21.1071C30 14.9371 22.94 15.1671 21.28 18.1971L21.32 16.5171V16.5171Z" fill="#106570"/>
</g>
<defs>
<clipPath id="clip0_1_5323">
<rect width="24" height="24" fill="white" transform="translate(8 8.03711)"/>
</clipPath>
</defs>
</svg>
