<svg width="53" height="50" viewBox="0 0 53 50" fill="none" xmlns="http://www.w3.org/2000/svg">
<path d="M15.2394 15.7417C13.0692 11.6062 14.1645 4.22527 14.9835 1.05176C21.3975 3.18347 24.8108 6.63861 26.5181 10.2803C27.6892 7.92073 31.6797 2.77162 38.2723 1.05176C39.6542 6.93784 40.8315 20.5016 26.807 24.8523C24.6573 23.7774 17.9522 20.9111 15.2394 15.7417Z" fill="#19AB55"/>
<path d="M15.2394 15.7417C13.0692 11.6062 14.1645 4.22527 14.9835 1.05176C21.3975 3.18347 24.8108 6.63861 26.5181 10.2803C29.4021 16.432 27.4179 23.1161 26.807 24.8523C24.6573 23.7774 17.9522 20.9111 15.2394 15.7417Z" fill="#0D8943" stroke="white" stroke-width="0.3"/>
<path d="M23.1717 27.7246L1 10.1953V16.4955C1 19.1299 1.81098 20.6157 2.21647 21.0293C8.38885 25.8177 21.2777 35.7762 23.4539 37.3034C25.6302 38.8306 26.4932 40.6114 26.6528 41.3109V35.042C26.6528 31.2887 24.3321 28.5999 23.1717 27.7246Z" fill="#0D8943" stroke="#087F5D" stroke-width="0.3"/>
<path d="M30.2267 27.7246L52.3984 10.1953V16.4955C52.3984 19.1299 51.5875 20.6157 51.182 21.0293C45.0096 25.8177 32.1208 35.7762 29.9445 37.3034C27.7683 38.8306 26.9052 40.6114 26.7457 41.3109V35.042C26.7457 31.2887 29.0664 28.5999 30.2267 27.7246Z" fill="#0D8943" stroke="#087F5D" stroke-width="0.3"/>
<path d="M5.97124 34.4399C2.51598 33.1036 2.02372 26.3428 2.2095 23.1294L25.0587 41.6464C20.1359 39.801 9.42651 35.7762 5.97124 34.4399Z" fill="#19AB55" stroke="#106570" stroke-width="0.3"/>
<path d="M48.0095 34.4399C51.3921 33.1036 51.874 26.3428 51.6921 23.1294L29.3239 41.6464C34.1431 39.801 44.627 35.7762 48.0095 34.4399Z" fill="#19AB55" stroke="#106570" stroke-width="0.3"/>
<path d="M26.6993 48.9482C14.5778 48.9482 6.80778 40.3896 4.43799 36.1104C8.91693 38.363 21.1451 41.9486 26.6993 43.4599V48.9482Z" fill="#6E2E13" stroke="#85200C" stroke-width="0.3"/>
<path d="M26.6991 48.9482C38.8207 48.9482 46.5907 40.3896 48.9604 36.1104C44.4815 38.363 32.2533 41.9486 26.6991 43.4599V48.9482Z" fill="#6E2E13" stroke="#85200C" stroke-width="0.3"/>
</svg>
