<svg height="24" viewBox="0 0 24 24" width="24" xmlns="http://www.w3.org/2000/svg"><path d="m20.302734 2.984375c-.288965.01257-.554151.09568-.787109.1875-.215218.084759-.988085.4095976-2.21875.9257812-1.230665.5161838-2.861399 1.2005786-4.599609 1.9316407-3.4764211 1.4621242-7.383028 3.106829-9.384766 3.9492187-.068741.0286404-.3479148.1141054-.65625.3496094-.3090504.236051-.6523438.748337-.6523438 1.308594 0 .451952.2256139.912247.4980469 1.175781s.5485372.386744.7792969.478516v-.001954c.7800276.310765 3.1094439 1.242876 3.6640625 1.464844.1967298.589527 1.041277 3.113372 1.2421875 3.748047h-.0019531c.1420119.449209.2804322.74196.4726562.986328.096112.122184.2108367.232903.3515625.320313.053994.03354.1137798.059554.1738282.083984.0083682.003553.0169929.004434.0253906.007813l-.0234375-.00586c.017411.007.0330372.017328.0507812.023438.0289146.009957.0489592.00963.0878907.017578.1370045.042147.2737606.070312.4003906.070312.5436106 0 .8769526-.294922.8769526-.294921l.021485-.015626 2.347656-1.986328 2.875 2.660157c.052514.074148.463901.630859 1.416016.630859.568125 0 1.017306-.281209 1.304687-.576172.287381-.294962.466398-.596768.546875-1.005859l.001953-.001953c.06418-.330182 2.816407-14.150391 2.816407-14.150391l-.00586.0234375c.08566-.3823454.110954-.7520994.009766-1.1289063-.101189-.3768067-.374276-.744531-.703125-.9375-.32885-.1929688-.640723-.2508516-.929688-.2382812zm-.394531 2.1894531c-.108761.5460295-2.574193 12.9320489-2.726562 13.7089839l-4.152344-3.841796-2.806641 2.373046.777344-3.039062s5.362547-5.4281406 5.685547-5.7441406c.26-.253.314453-.3416875.314453-.4296875 0-.117-.060219-.2011719-.199219-.2011719-.125 0-.294765.1197812-.384765.1757812-1.143648.7130042-6.014733 3.4889038-8.4101566 4.8515628-.1441578-.057804-2.3084632-.926886-3.4746094-1.392578 2.0742646-.872996 5.629906-2.3689577 8.941406-3.7617191 1.737915-.7309379 3.368166-1.4159492 4.597656-1.9316407 1.037846-.4353085 1.579226-.6607027 1.837891-.7675781zm-2.755859 13.8515629h.001953c-.000045.00023-.001853.005559-.001953.005859.001271-.006461-.000954-.0008 0-.005859z"/></svg>